<?xml version="1.0" encoding="UTF-8"?>
<svg id="Layer_2" xmlns="http://www.w3.org/2000/svg" viewBox="0 0 1280.7 3844.65">
  <defs>
    <style>
      .cls-1 {
        fill: none;
        stroke: #2e368f;
        stroke-miterlimit: 10;
        stroke-width: 2px;
      }

      .cls-2 {
        fill: #fff7ef;
      }
    </style>
  </defs>
  <g id="MEET_THE_PARENTS">
    <g>
      <path class="cls-2" d="M.3,3844.65h1280V32.09c-45.65-20-96.08-31.09-149.11-31.09-87.68,0-168.28,30.34-231.86,81.09l-15.13,12.75c-67.69,70.47-162.87,114.32-268.29,114.32s-191.87-39.94-258.83-104.82l-.24.27C291.37,47.17,205.56,12.34,111.62,12.34,72.84,12.34,35.45,18.28.3,29.29v3815.36Z"/>
      <path class="cls-1" d="M1280.3,32.09c-45.65-20-96.08-31.09-149.11-31.09-87.68,0-168.28,30.34-231.86,81.09l-15.13,12.75c-67.69,70.47-162.87,114.32-268.29,114.32s-191.87-39.94-258.83-104.82l-.24.27C291.37,47.17,205.56,12.34,111.62,12.34,72.84,12.34,35.45,18.28.3,29.29"/>
    </g>
  </g>
</svg>