<?xml version="1.0" encoding="UTF-8"?>
<svg id="Layer_2" xmlns="http://www.w3.org/2000/svg" xmlns:xlink="http://www.w3.org/1999/xlink" viewBox="0 0 438.18 461.67">
  <defs>
    <style>
      .cls-1 {
        fill: #bbd8f2;
      }

      .cls-2 {
        fill: #2e3192;
      }
    </style>
  </defs>
  <g id="MEET_THE_PARENTS">
    <g id="LOGO">
      <g>
        <g>
          <rect class="cls-1" x="2.6" y="8.88" width="432.98" height="432.98" rx="11" ry="11"/>
          <path class="cls-2" d="M424.58,9.88c5.51,0,10,4.49,10,10v410.98c0,5.51-4.49,10-10,10H13.6c-5.51,0-10-4.49-10-10V19.88c0-5.51,4.49-10,10-10h410.98M424.58,7.88H13.6C7,7.88,1.6,13.28,1.6,19.88v410.98c0,6.6,5.4,12,12,12h410.98c6.6,0,12-5.4,12-12V19.88c0-6.6-5.4-12-12-12h0Z"/>
        </g>
        <ellipse class="cls-2" cx="212.92" cy="372.68" rx="210.04" ry="28.51" transform="translate(-50.46 33.78) rotate(-8.11)"/>
        <image width="541" height="570" transform="scale(.81)" xlink:href="../oboe 1.png"/>
      </g>
    </g>
  </g>
</svg>