<?xml version="1.0" encoding="UTF-8"?>
<svg id="Layer_2" xmlns="http://www.w3.org/2000/svg" xmlns:xlink="http://www.w3.org/1999/xlink" viewBox="0 0 338.71 338.71">
  <defs>
    <style>
      .cls-1 {
        fill: #bbd8f2;
      }

      .cls-2 {
        fill: #2e3192;
      }
    </style>
  </defs>
  <g id="HOME">
    <g id="LOGO">
      <g>
        <g>
          <path class="cls-1" d="M169.36,337.71C76.52,337.71,1,262.19,1,169.36S76.52,1,169.36,1s168.36,75.52,168.36,168.36-75.52,168.36-168.36,168.36Z"/>
          <path class="cls-2" d="M169.36,2c44.7,0,86.73,17.41,118.34,49.02,31.61,31.61,49.02,73.64,49.02,118.34s-17.41,86.73-49.02,118.34c-31.61,31.61-73.64,49.02-118.34,49.02s-86.73-17.41-118.34-49.02C19.41,256.08,2,214.06,2,169.36S19.41,82.63,51.02,51.02C82.63,19.41,124.65,2,169.36,2M169.36,0C75.82,0,0,75.82,0,169.36s75.82,169.36,169.36,169.36,169.36-75.82,169.36-169.36S262.89,0,169.36,0h0Z"/>
        </g>
        <image width="526" height="570" transform="translate(24.63) scale(.55)" xlink:href="../oboe 2.png"/>
      </g>
    </g>
  </g>
</svg>