<?xml version="1.0" encoding="UTF-8"?>
<svg id="Layer_2" xmlns="http://www.w3.org/2000/svg" viewBox="0 0 461.26 109.59">
  <defs>
    <style>
      .cls-1 {
        fill: #fff7ef;
        stroke: #2e3192;
        stroke-miterlimit: 10;
      }
    </style>
  </defs>
  <g id="KEEP_SCROLLING">
    <g id="TEXT">
      <g>
        <path class="cls-1" d="M2.38,27.98c3.19-4.69,9.44-6.43,15.38-2.4,5.97,4.06,6.67,10.52,3.48,15.21-3.19,4.69-9.47,6.47-15.44,2.41C-.13,39.16-.8,32.67,2.38,27.98ZM14.82,36.43c1.25-1.84,1.14-4-.81-5.32-1.91-1.3-3.96-.6-5.21,1.24-1.27,1.88-1.16,4.03.75,5.33,1.95,1.32,3.99.63,5.27-1.25Z"/>
        <path class="cls-1" d="M30.88,58.24l5.63-9.7c1.05-1.82.47-3.08-1.09-3.98-1.49-.86-2.7-.54-3.6-.24l-6.29,10.82-6.54-3.8,10.19-17.54,6.54,3.8-1.16,2c1.69-.57,4.36-.72,7.44,1.07,4.07,2.36,4.41,5.87,2.64,8.92l-7.23,12.46-6.54-3.8Z"/>
        <path class="cls-1" d="M60.05,50.17c5.35,2.64,7.56,8.5,4.4,14.91l-.69,1.39-12.36-6.09c-.2,1.35.56,3.13,2.86,4.27,1.54.76,3.48,1.01,4.74.74l.73,5.56c-2.57.65-6.16-.23-8.88-1.57-5.69-2.8-8.37-8.57-5.42-14.56,2.6-5.27,8.73-7.54,14.61-4.65ZM53.46,56.05l5.99,2.95c.2-.88.25-2.59-1.94-3.67-2.07-1.02-3.42,0-4.05.72Z"/>
        <path class="cls-1" d="M64.1,76.39c.33.41.86.77,1.33.96,1.36.56,2.31.69,2.75.28l.32-.32.54-22.11,7.37,3.06-.88,12.19,8.05-9.21,7.37,3.06-16.89,17.68c-3.47,3.65-6.91,3.18-10.92,1.65-.51-.21-2.01-.97-2.59-1.44l3.55-5.8Z"/>
        <path class="cls-1" d="M101.49,67.32c5.64,1.93,8.59,7.46,6.28,14.22l-.5,1.47-13.04-4.45c-.02,1.37.96,3.04,3.38,3.86,1.63.56,3.58.56,4.79.13l1.43,5.42c-2.46.98-6.14.57-9-.41-6-2.05-9.4-7.43-7.24-13.75,1.9-5.56,7.69-8.6,13.89-6.48ZM95.7,74l6.32,2.16c.09-.9-.09-2.6-2.39-3.39-2.19-.75-3.39.44-3.93,1.23Z"/>
        <path class="cls-1" d="M120.99,73.88l-5.37,18.65c-1.44,5-4.98,8.05-10.63,6.42-.93-.27-1.64-.52-2.21-.81l1.68-5.85c.38.2.7.29.95.36,1.33.38,2.42-.35,2.95-2.21l5.37-18.65,7.26,2.09ZM115.04,65.57c.65-2.26,2.99-3.55,5.25-2.9,2.26.65,3.55,2.99,2.9,5.25-.65,2.26-2.99,3.55-5.25,2.9-2.26-.65-3.55-2.99-2.9-5.25Z"/>
        <path class="cls-1" d="M131.66,97.46l.44-1.88c-1.43,1.13-4.07,1.55-6.53.97-2.94-.69-6.32-3.59-5.27-8.09,1.15-4.91,5.27-5.19,8.21-4.5,2.58.6,4.71,1.97,5.46,3.56l.53-2.25c.33-1.39-.69-2.75-3.11-3.31-1.84-.43-4.1-.18-5.93.64l-1.43-5.12c3.15-1.5,7.04-1.5,10.02-.8,4.91,1.15,9.29,3.98,7.75,10.57l-2.79,11.94-7.36-1.72ZM133.17,91c-.33-.81-1.51-1.47-2.66-1.74-1.23-.29-2.67-.19-2.96,1.03-.29,1.23.98,1.91,2.2,2.2,1.15.27,2.5.2,3.15-.38l.26-1.1Z"/>
        <path class="cls-1" d="M157.57,81.36c4.55.77,7.02,3.31,7.85,5.2l-5.56,3.71c-.46-1.06-1.5-2-3.07-2.26-2.11-.36-4.16.66-4.59,3.23-.43,2.57,1.16,4.24,3.27,4.6,1.57.26,2.87-.37,3.65-1.17l4.04,5.36c-1.4,1.47-4.57,3.11-9.12,2.34-6.34-1.07-10.53-6.03-9.45-12.41,1.07-6.34,6.65-9.65,12.99-8.59Z"/>
        <path class="cls-1" d="M178.61,105.06l-2.79-6.88-1.67,1.81-.48,4.55-7.52-.79,2.91-27.87,7.52.79-1.55,14.87,5.39-6.7,9.06.95-7.89,8.47,6.25,11.76-9.23-.96Z"/>
        <path class="cls-1" d="M194.66,97.28c1.88,1.66,4.7,2.6,7.13,2.68,2.81.1,3.99-1.17,4.04-2.51.05-1.43-1-2.56-3.61-2.65-2.14-.07-3.8.46-5.27,1.75l-5.79-1.54.58-16.83,21.41.74-.24,7.05-13.35-.46-.15,4.45c1.81-1.24,3.98-2.01,6.33-1.92,4.79.17,8.9,3.8,8.71,9.38-.21,6.17-4.96,9.92-12.81,9.64-5-.17-8.93-1.78-11.58-4.35l4.6-5.43Z"/>
        <path class="cls-1" d="M225.49,106.63l-.51-17.21-4.6,4.84-4.93-4.85,10.39-10.81,7.3-.22.83,28-8.48.25Z"/>
        <path class="cls-1" d="M252.83,77.9c8.11-.85,13.76,4.34,14.45,10.95.78,7.48-4.43,11.36-8.19,11.76-2.67.28-4.03-.93-4.59-2.31l-.11-.28c-1.24,2.24-3.23,3.42-5.07,3.61-4.22.44-6.9-2.53-7.32-6.58-.55-5.31,3.26-10.39,8.03-10.89,2.34-.25,4.23.49,5.34,1.81l.18-1.88,6.6-.69-.97,9.27c-.02.21-.03.93,0,1.14.12,1.17.63,1.54,1.34,1.46,1.63-.17,3.09-2.39,2.69-6.2-.67-6.39-5.36-10.04-12.34-9.31-7.77.81-13.83,8.25-13.02,16.02.68,6.48,6.09,10.94,12.77,10.23,2.67-.28,5.13-1.38,7.24-3.04l1.15,1.32c-2.42,1.94-5.32,3.22-8.41,3.54-7.6.8-13.84-4.33-14.62-11.73-.92-8.81,6.17-17.29,14.86-18.2ZM254.9,90.06c-.43-.5-1.29-1.05-2.55-.92-2.55.27-3.88,2.48-3.66,4.61.17,1.63,1.33,2.56,2.91,2.4,1.55-.16,2.37-1.18,2.91-2.04l.38-4.05Z"/>
        <path class="cls-1" d="M276.16,101.65c1.81,1.24,4.21,1.47,6.36,1.07,1.73-.33,4.5-1.53,3.84-5.04l-.2-1.07c-1.33,2.26-3.04,3.35-5.11,3.74-4.79.9-9.34-1.49-10.62-8.3-1.25-6.64,1.97-10.67,6.88-11.59,2.06-.39,4.13-.05,6.1,1.54l-.39-2.1,7.43-1.4,3.35,17.79c1.62,8.63-5.17,11.57-10.12,12.5-3.43.64-6.65.31-9.64-1.26l2.14-5.87ZM284.39,87.23c-.86-.69-2.35-.88-3.29-.71-2.02.38-3.54,1.65-3.08,4.08.46,2.44,2.33,3.07,4.35,2.69.95-.18,2.27-.9,2.81-1.85l-.79-4.21Z"/>
        <path class="cls-1" d="M324.83,90.33l-3.22-11.4c-.33-1.17-1.22-2.01-2.84-1.55s-2.23,1.68-2.56,2.38l3.4,12.04-7.28,2.05-3.22-11.4c-.33-1.17-1.18-2.02-2.84-1.56-1.58.45-2.19,1.67-2.52,2.37l3.4,12.05-7.28,2.05-5.51-19.52,7.28-2.05.63,2.22c.54-1.33,2.55-3.64,5.7-4.53,2.75-.78,5.02-.33,6.59,1.85.65-2.02,2.71-4.47,5.86-5.36,3.6-1.02,6.54.12,7.68,4.16l4,14.15-7.28,2.05Z"/>
        <path class="cls-1" d="M348.42,82.04l-.69-1.81c-.55,1.74-2.51,3.56-4.87,4.45-2.83,1.07-7.25.54-8.88-3.78-1.79-4.71,1.47-7.25,4.3-8.32,2.47-.94,5.01-1,6.52-.09l-.82-2.16c-.51-1.34-2.11-1.9-4.43-1.02-1.77.67-3.5,2.13-4.56,3.84l-4.05-3.45c1.78-3.01,5-5.17,7.87-6.26,4.71-1.79,9.93-1.88,12.33,4.45l4.34,11.47-7.07,2.68ZM346.07,75.84c-.72-.49-2.08-.38-3.18.04-1.18.45-2.32,1.33-1.88,2.51.45,1.18,1.88,1.04,3.05.59,1.1-.42,2.18-1.23,2.4-2.08l-.4-1.06Z"/>
        <path class="cls-1" d="M349.06,53.09c-.94-2.15.03-4.64,2.19-5.59,2.15-.94,4.64.03,5.59,2.19.94,2.16-.03,4.64-2.19,5.59-2.16.94-4.64-.03-5.59-2.19ZM360.15,77.31l-8.13-18.59,6.93-3.03,8.13,18.59-6.93,3.03Z"/>
        <path class="cls-1" d="M371.44,72.28l-12.07-25.28,6.82-3.26,12.07,25.28-6.82,3.26Z"/>
        <path class="cls-1" d="M382.03,57.6c2.16-1.12,4.94-.25,6.06,1.92s.24,4.94-1.92,6.06-4.94.25-6.06-1.92c-1.12-2.16-.24-4.94,1.92-6.06Z"/>
        <path class="cls-1" d="M392.04,38.03c4-2.32,7.52-1.93,9.37-1.01l-1.92,6.4c-1.03-.52-2.43-.58-3.81.22-1.85,1.07-2.78,3.16-1.47,5.42,1.31,2.25,3.6,2.52,5.45,1.45,1.38-.8,1.98-2.12,2.06-3.23l6.53,1.55c-.14,2.02-1.53,5.31-5.53,7.63-5.56,3.22-11.95,2.08-15.2-3.52-3.22-5.56-1.04-11.68,4.51-14.9Z"/>
        <path class="cls-1" d="M406.19,42.09c-3.15-4.71-2.42-11.17,3.55-15.16,6.01-4.02,12.25-2.23,15.41,2.48,3.15,4.71,2.44,11.2-3.56,15.22-5.97,4-12.24,2.18-15.39-2.54ZM418.69,33.72c-1.24-1.85-3.28-2.56-5.23-1.25-1.92,1.28-2.04,3.44-.81,5.29,1.26,1.89,3.3,2.59,5.22,1.31,1.96-1.31,2.08-3.46.82-5.35Z"/>
        <path class="cls-1" d="M454.66,19.23l-7.42-9.23c-.76-.95-1.91-1.37-3.22-.32-1.31,1.05-1.4,2.42-1.42,3.19l7.84,9.76-5.89,4.73-7.42-9.23c-.76-.95-1.88-1.4-3.22-.32-1.28,1.03-1.37,2.39-1.39,3.17l7.84,9.76-5.89,4.74-12.71-15.82,5.89-4.74,1.45,1.8c-.02-1.44.92-4.35,3.48-6.4,2.23-1.79,4.49-2.26,6.79-.87-.19-2.11.74-5.18,3.3-7.23,2.91-2.34,6.06-2.45,8.69.83l9.21,11.46-5.89,4.74Z"/>
      </g>
    </g>
  </g>
</svg>