<?xml version="1.0" encoding="UTF-8"?>
<svg id="Layer_2" xmlns="http://www.w3.org/2000/svg" viewBox="0 0 543.37 254.91">
  <defs>
    <style>
      .cls-1 {
        fill: #bbd8f2;
      }

      .cls-2 {
        fill: #2e3192;
      }
    </style>
  </defs>
  <g id="KEEP_SCROLLING">
    <g id="TEXT">
      <g>
        <g>
          <path class="cls-1" d="M77.54,154.09C35.34,154.09,1,119.75,1,77.54S35.34,1,77.54,1h388.28c42.21,0,76.54,34.34,76.54,76.54s-34.34,76.54-76.54,76.54H77.54Z"/>
          <path class="cls-2" d="M465.82,2c20.09,0,39.04,7.88,53.35,22.19,14.31,14.31,22.19,33.26,22.19,53.35s-7.88,39.04-22.19,53.35c-14.31,14.31-33.26,22.19-53.35,22.19H77.54c-20.09,0-39.04-7.88-53.35-22.19C9.88,116.58,2,97.64,2,77.54s7.88-39.04,22.19-53.35C38.5,9.88,57.45,2,77.54,2h388.28M465.82,0H77.54C34.89,0,0,34.9,0,77.54h0c0,42.65,34.89,77.54,77.54,77.54h388.28c42.65,0,77.54-34.89,77.54-77.54h0c0-42.65-34.89-77.54-77.54-77.54h0Z"/>
        </g>
        <g>
          <path class="cls-2" d="M65.75,63.4l-8.05-11.55-2.07,2.58v8.97h-7.91v-30.69h7.91v12.61l9.43-12.61h9.75l-11.92,14.35,12.56,16.33h-9.71Z"/>
          <path class="cls-2" d="M77.8,63.4v-30.69h22.5v6.67h-14.58v5.11h14.26v6.72h-14.26v5.52h14.58v6.67h-22.5Z"/>
          <path class="cls-2" d="M104.89,63.4v-30.69h22.5v6.67h-14.58v5.11h14.26v6.72h-14.26v5.52h14.58v6.67h-22.5Z"/>
          <path class="cls-2" d="M131.98,63.4v-30.69h15.37c6.9,0,10.67,4.65,10.67,10.21s-3.77,10.08-10.67,10.08h-7.45v10.4h-7.91ZM146.29,39.39h-6.39v6.9h6.39c2.12,0,3.68-1.33,3.68-3.4s-1.56-3.5-3.68-3.5Z"/>
          <path class="cls-2" d="M175.32,53.14c2.21,2.21,5.61,4.05,9.8,4.05,2.71,0,4.37-1.15,4.37-2.62,0-1.75-1.98-2.44-5.24-3.13-5.06-1.01-12.15-2.3-12.15-9.57,0-5.15,4.37-9.62,12.24-9.62,4.92,0,9.2,1.47,12.47,4.28l-4.32,5.66c-2.58-2.12-5.93-3.17-8.65-3.17s-3.63,1.06-3.63,2.39c0,1.61,1.89,2.16,5.29,2.81,5.06,1.06,12.05,2.53,12.05,9.48,0,6.16-4.55,10.26-12.79,10.26-6.21,0-10.54-1.93-13.62-4.88l4.19-5.93Z"/>
          <path class="cls-2" d="M199.65,48.08c0-9.48,7.18-15.87,16.38-15.87,7.64,0,11.59,4.19,13.62,8.23l-6.81,3.22c-1.01-2.44-3.63-4.46-6.81-4.46-4.78,0-8.33,3.86-8.33,8.88s3.54,8.88,8.33,8.88c3.17,0,5.8-2.02,6.81-4.46l6.81,3.22c-1.98,3.96-5.98,8.24-13.62,8.24-9.2,0-16.38-6.44-16.38-15.87Z"/>
          <path class="cls-2" d="M250.16,63.4l-5.15-10.4h-4.05v10.4h-7.91v-30.69h15.37c6.81,0,10.67,4.51,10.67,10.21,0,5.34-3.27,8.19-6.12,9.2l6.26,11.27h-9.06ZM247.21,39.39h-6.26v6.9h6.26c2.07,0,3.82-1.33,3.82-3.45s-1.75-3.45-3.82-3.45Z"/>
          <path class="cls-2" d="M278.31,32.21c9.38,0,16.38,6.53,16.38,15.87s-6.99,15.87-16.38,15.87-16.42-6.53-16.42-15.87,7.04-15.87,16.42-15.87ZM278.31,39.21c-5.11,0-8.37,3.86-8.37,8.88s3.27,8.88,8.37,8.88,8.33-3.91,8.33-8.88-3.27-8.88-8.33-8.88Z"/>
          <path class="cls-2" d="M298.69,63.4v-30.69h7.91v23.78h12.33v6.9h-20.24Z"/>
          <path class="cls-2" d="M323.02,63.4v-30.69h7.91v23.78h12.33v6.9h-20.24Z"/>
          <path class="cls-2" d="M347.35,63.4v-30.69h7.91v30.69h-7.91Z"/>
          <path class="cls-2" d="M381.67,63.4l-12.97-18.54v18.54h-7.91v-30.69h8.14l12.42,17.67v-17.67h7.96v30.69h-7.64Z"/>
          <path class="cls-2" d="M409.87,32.21c6.72,0,10.86,3.31,13.11,7.13l-6.62,3.5c-1.24-2.02-3.59-3.63-6.49-3.63-5.01,0-8.56,3.86-8.56,8.88s3.54,8.88,8.56,8.88c2.39,0,4.55-.83,5.8-1.84v-2.58h-7.04v-6.58h14.81v12.01c-3.31,3.63-7.77,5.98-13.57,5.98-9.16,0-16.61-6.12-16.61-15.87s7.45-15.87,16.61-15.87Z"/>
          <path class="cls-2" d="M446.71,63.4v-23.78h-8.6v-6.9h25.07v6.9h-8.56v23.78h-7.91Z"/>
          <path class="cls-2" d="M480.8,32.21c9.38,0,16.38,6.53,16.38,15.87s-6.99,15.87-16.38,15.87-16.42-6.53-16.42-15.87,7.04-15.87,16.42-15.87ZM480.8,39.21c-5.11,0-8.37,3.86-8.37,8.88s3.27,8.88,8.37,8.88,8.33-3.91,8.33-8.88-3.27-8.88-8.33-8.88Z"/>
          <path class="cls-2" d="M32.3,108.34c2.21,2.21,5.61,4.05,9.8,4.05,2.71,0,4.37-1.15,4.37-2.62,0-1.75-1.98-2.44-5.24-3.13-5.06-1.01-12.15-2.3-12.15-9.57,0-5.15,4.37-9.62,12.24-9.62,4.92,0,9.2,1.47,12.47,4.28l-4.32,5.66c-2.58-2.12-5.93-3.17-8.65-3.17s-3.63,1.06-3.63,2.39c0,1.61,1.89,2.16,5.29,2.81,5.06,1.06,12.05,2.53,12.05,9.48,0,6.16-4.55,10.26-12.79,10.26-6.21,0-10.54-1.93-13.62-4.88l4.19-5.93Z"/>
          <path class="cls-2" d="M58.2,118.6v-30.69h22.5v6.67h-14.58v5.11h14.26v6.72h-14.26v5.52h14.58v6.67h-22.5Z"/>
          <path class="cls-2" d="M85.29,118.6v-30.69h22.5v6.67h-14.58v5.11h14.26v6.72h-14.26v5.52h14.58v6.67h-22.5Z"/>
          <path class="cls-2" d="M124.16,118.6v-30.69h22.5v6.67h-14.58v5.11h14.26v6.72h-14.26v12.19h-7.91Z"/>
          <path class="cls-2" d="M168.05,118.6l-5.15-10.4h-4.05v10.4h-7.91v-30.69h15.37c6.81,0,10.67,4.51,10.67,10.21,0,5.34-3.27,8.19-6.12,9.2l6.26,11.27h-9.06ZM165.1,94.59h-6.26v6.9h6.26c2.07,0,3.82-1.33,3.82-3.45s-1.75-3.45-3.82-3.45Z"/>
          <path class="cls-2" d="M181.34,118.6v-30.69h22.5v6.67h-14.58v5.11h14.26v6.72h-14.26v5.52h14.58v6.67h-22.5Z"/>
          <path class="cls-2" d="M210.41,108.34c2.21,2.21,5.61,4.05,9.8,4.05,2.71,0,4.37-1.15,4.37-2.62,0-1.75-1.98-2.44-5.25-3.13-5.06-1.01-12.15-2.3-12.15-9.57,0-5.15,4.37-9.62,12.24-9.62,4.92,0,9.2,1.47,12.47,4.28l-4.32,5.66c-2.58-2.12-5.94-3.17-8.65-3.17s-3.63,1.06-3.63,2.39c0,1.61,1.89,2.16,5.29,2.81,5.06,1.06,12.05,2.53,12.05,9.48,0,6.16-4.55,10.26-12.79,10.26-6.21,0-10.54-1.93-13.62-4.88l4.19-5.93Z"/>
          <path class="cls-2" d="M256.97,118.6v-12.33h-12.74v12.33h-7.91v-30.69h7.91v11.46h12.74v-11.46h7.91v30.69h-7.91Z"/>
          <path class="cls-2" d="M282.17,118.6v-30.69h15.37c6.9,0,10.67,4.65,10.67,10.21s-3.77,10.08-10.67,10.08h-7.45v10.4h-7.91ZM296.48,94.59h-6.39v6.9h6.39c2.12,0,3.68-1.33,3.68-3.4s-1.56-3.5-3.68-3.5Z"/>
          <path class="cls-2" d="M311.75,87.92h8.05v17.99c0,3.63,1.93,6.26,6.21,6.26s6.17-2.62,6.17-6.26v-17.99h8.05v18.22c0,7.64-4.37,13.02-14.22,13.02s-14.26-5.43-14.26-12.97v-18.26Z"/>
          <path class="cls-2" d="M345.74,118.6v-30.69h15.37c6.9,0,10.67,4.65,10.67,10.21s-3.77,10.08-10.67,10.08h-7.45v10.4h-7.91ZM360.05,94.59h-6.39v6.9h6.39c2.12,0,3.68-1.33,3.68-3.4s-1.56-3.5-3.68-3.5Z"/>
          <path class="cls-2" d="M375.32,118.6v-30.69h12.88c9.66,0,16.61,5.8,16.61,15.32s-6.95,15.37-16.56,15.37h-12.93ZM383.23,111.7h4.97c5.38,0,8.51-3.91,8.51-8.46s-2.85-8.42-8.46-8.42h-5.02v16.88Z"/>
          <path class="cls-2" d="M428.5,118.6l-1.56-4.65h-12.74l-1.56,4.65h-8.6l11.55-30.69h9.94l11.59,30.69h-8.6ZM420.54,94.82l-4.28,12.47h8.6l-4.32-12.47Z"/>
          <path class="cls-2" d="M443.35,118.6v-23.78h-8.6v-6.9h25.07v6.9h-8.56v23.78h-7.91Z"/>
          <path class="cls-2" d="M463.59,118.6v-30.69h22.5v6.67h-14.58v5.11h14.26v6.72h-14.26v5.52h14.58v6.67h-22.5Z"/>
          <path class="cls-2" d="M492.66,108.34c2.21,2.21,5.61,4.05,9.8,4.05,2.71,0,4.37-1.15,4.37-2.62,0-1.75-1.98-2.44-5.24-3.13-5.06-1.01-12.15-2.3-12.15-9.57,0-5.15,4.37-9.62,12.24-9.62,4.92,0,9.2,1.47,12.47,4.28l-4.32,5.66c-2.58-2.12-5.93-3.17-8.65-3.17s-3.63,1.06-3.63,2.39c0,1.61,1.89,2.16,5.29,2.81,5.06,1.06,12.05,2.53,12.05,9.48,0,6.16-4.55,10.26-12.79,10.26-6.21,0-10.54-1.93-13.62-4.88l4.19-5.93Z"/>
        </g>
        <polygon class="cls-2" points="270.51 204.11 322.26 174.23 218.76 174.23 270.51 204.11"/>
        <polygon class="cls-2" points="270.51 233.15 298.65 216.9 242.38 216.9 270.51 233.15"/>
        <polygon class="cls-2" points="270.51 254.91 286.05 245.94 254.98 245.94 270.51 254.91"/>
      </g>
    </g>
  </g>
</svg>