<?xml version="1.0" encoding="UTF-8"?>
<svg id="Layer_2" xmlns="http://www.w3.org/2000/svg" viewBox="0 0 268.75 56.93">
  <defs>
    <style>
      .cls-1 {
        isolation: isolate;
      }

      .cls-2 {
        fill: none;
        stroke: #2e3192;
        stroke-miterlimit: 10;
      }

      .cls-3 {
        fill: #fff7ef;
      }
    </style>
  </defs>
  <g id="Layer_2-2" data-name="Layer_2">
    <g id="KEEP_SCROLLING">
      <g id="TEXT">
        <g>
          <g class="cls-1">
            <g class="cls-1">
              <path class="cls-3" d="M.88,37.73l15.49-17.94L3.32,15.76l1.86-6.02,20.99,6.49-1.48,4.78-16.23,19.07-7.58-2.35Z"/>
            </g>
            <g class="cls-1">
              <path class="cls-2" d="M.88,37.73l15.49-17.94L3.32,15.76l1.86-6.02,20.99,6.49-1.48,4.78-16.23,19.07-7.58-2.35Z"/>
            </g>
          </g>
          <g class="cls-1">
            <g class="cls-1">
              <path class="cls-3" d="M29.01,45.73l4.41-18.25-5.69,3.51-2.99-5.17,11.78-7.1,6.08,1.47-6.57,27.24-7.02-1.7Z"/>
            </g>
            <g class="cls-1">
              <path class="cls-2" d="M29.01,45.73l4.41-18.25-5.69,3.51-2.99-5.17,11.78-7.1,6.08,1.47-6.57,27.24-7.02-1.7Z"/>
            </g>
          </g>
          <g class="cls-1">
            <g class="cls-1">
              <path class="cls-3" d="M45.99,49.53l13.1-19.75-13.45-2.36,1.09-6.21,21.64,3.8-.86,4.92-13.7,20.97-7.82-1.37Z"/>
            </g>
            <g class="cls-1">
              <path class="cls-2" d="M45.99,49.53l13.1-19.75-13.45-2.36,1.09-6.21,21.64,3.8-.86,4.92-13.7,20.97-7.82-1.37Z"/>
            </g>
          </g>
          <g class="cls-1">
            <g class="cls-1">
              <path class="cls-3" d="M68.38,45.66c2.12.29,3.67,2.32,3.39,4.44-.28,2.12-2.31,3.67-4.44,3.39-2.12-.28-3.67-2.31-3.39-4.44.29-2.12,2.32-3.67,4.44-3.39Z"/>
            </g>
            <g class="cls-1">
              <path class="cls-2" d="M68.38,45.66c2.12.29,3.67,2.32,3.39,4.44-.28,2.12-2.31,3.67-4.44,3.39-2.12-.28-3.67-2.31-3.39-4.44.29-2.12,2.32-3.67,4.44-3.39Z"/>
            </g>
          </g>
          <g class="cls-1">
            <g class="cls-1">
              <path class="cls-3" d="M91.69,26.95c3.31.26,6.32,1.56,8.29,3.36l-3.56,5.03c-1.45-1.38-2.91-2.09-5.21-2.27-3.69-.29-6.76,2.28-7.07,6.22l-.03.33c1.53-1.73,4.28-2.9,7.12-2.68,5.03.4,9.42,3.91,8.95,9.86-.46,5.74-5.43,9.43-11.92,8.91-8.83-.71-12.18-7.42-11.54-15.42.71-8.92,6.51-14.02,14.97-13.34ZM88.58,42.68c-1.76-.14-3.49.4-4.84,1.51.03,2.32,1.15,5.11,4.67,5.39,2.72.22,4.33-1.38,4.46-3.06.2-2.47-1.98-3.66-4.29-3.84Z"/>
            </g>
            <g class="cls-1">
              <path class="cls-2" d="M91.69,26.95c3.31.26,6.32,1.56,8.29,3.36l-3.56,5.03c-1.45-1.38-2.91-2.09-5.21-2.27-3.69-.29-6.76,2.28-7.07,6.22l-.03.33c1.53-1.73,4.28-2.9,7.12-2.68,5.03.4,9.42,3.91,8.95,9.86-.46,5.74-5.43,9.43-11.92,8.91-8.83-.71-12.18-7.42-11.54-15.42.71-8.92,6.51-14.02,14.97-13.34ZM88.58,42.68c-1.76-.14-3.49.4-4.84,1.51.03,2.32,1.15,5.11,4.67,5.39,2.72.22,4.33-1.38,4.46-3.06.2-2.47-1.98-3.66-4.29-3.84Z"/>
            </g>
          </g>
          <g class="cls-1">
            <g class="cls-1">
              <path class="cls-3" d="M116.38,56.37l.04-5.12-13.4-.11.04-5.63,10.77-17.18,10.04.08-.13,16.55,3.4.03-.05,6.34-3.4-.03-.04,5.12-7.27-.06ZM116.55,34.65l-6.47,10.2,6.39.05.08-10.25Z"/>
            </g>
            <g class="cls-1">
              <path class="cls-2" d="M116.38,56.37l.04-5.12-13.4-.11.04-5.63,10.77-17.18,10.04.08-.13,16.55,3.4.03-.05,6.34-3.4-.03-.04,5.12-7.27-.06ZM116.55,34.65l-6.47,10.2,6.39.05.08-10.25Z"/>
            </g>
          </g>
          <g class="cls-1">
            <g class="cls-1">
              <path class="cls-3" d="M131.81,56.26l-.38-5.62c11.53-9.57,13.66-11.65,13.48-14.41-.13-1.93-2-2.81-4.18-2.67-2.98.2-5.25,1.53-7.13,3.55l-4.3-4.51c2.76-3.47,7.11-5.15,11.01-5.41,6.58-.44,11.56,2.93,11.94,8.55.29,4.27-2.53,8.13-9.71,13.49l10.77-.72.42,6.29-21.92,1.46Z"/>
            </g>
            <g class="cls-1">
              <path class="cls-2" d="M131.81,56.26l-.38-5.62c11.53-9.57,13.66-11.65,13.48-14.41-.13-1.93-2-2.81-4.18-2.67-2.98.2-5.25,1.53-7.13,3.55l-4.3-4.51c2.76-3.47,7.11-5.15,11.01-5.41,6.58-.44,11.56,2.93,11.94,8.55.29,4.27-2.53,8.13-9.71,13.49l10.77-.72.42,6.29-21.92,1.46Z"/>
            </g>
          </g>
          <g class="cls-1">
            <g class="cls-1">
              <path class="cls-3" d="M161.29,46.38c2.13-.26,4.14,1.32,4.39,3.45.26,2.13-1.32,4.14-3.45,4.39-2.13.25-4.14-1.32-4.39-3.45-.26-2.13,1.32-4.14,3.45-4.39Z"/>
            </g>
            <g class="cls-1">
              <path class="cls-2" d="M161.29,46.38c2.13-.26,4.14,1.32,4.39,3.45.26,2.13-1.32,4.14-3.45,4.39-2.13.25-4.14-1.32-4.39-3.45-.26-2.13,1.32-4.14,3.45-4.39Z"/>
            </g>
          </g>
          <g class="cls-1">
            <g class="cls-1">
              <path class="cls-3" d="M173.53,44.67c1.75.97,3.38,1.28,5.62.89,3.81-.67,5.95-4.03,5.29-7.79l-.06-.33c-1.05,2.06-3.41,3.88-6.19,4.37-4.97.87-10.14-1.42-11.17-7.3-.99-5.67,2.9-10.49,9.31-11.61,8.73-1.53,13.64,4.09,15.03,12.04,1.54,8.77-2.79,15.2-11.15,16.67-3.23.57-6.46.11-8.82-1.18l2.15-5.75ZM177.71,28.88c-2.65.46-3.8,2.41-3.52,4.03.43,2.48,2.84,3.08,5.08,2.69,1.74-.3,3.32-1.26,4.31-2.67-.56-2.25-2.39-4.66-5.87-4.05Z"/>
            </g>
            <g class="cls-1">
              <path class="cls-2" d="M173.53,44.67c1.75.97,3.38,1.28,5.62.89,3.81-.67,5.95-4.03,5.29-7.79l-.06-.33c-1.05,2.06-3.41,3.88-6.19,4.37-4.97.87-10.14-1.42-11.17-7.3-.99-5.67,2.9-10.49,9.31-11.61,8.73-1.53,13.64,4.09,15.03,12.04,1.54,8.77-2.79,15.2-11.15,16.67-3.23.57-6.46.11-8.82-1.18l2.15-5.75ZM177.71,28.88c-2.65.46-3.8,2.41-3.52,4.03.43,2.48,2.84,3.08,5.08,2.69,1.74-.3,3.32-1.26,4.31-2.67-.56-2.25-2.39-4.66-5.87-4.05Z"/>
            </g>
          </g>
          <g class="cls-1">
            <g class="cls-1">
              <path class="cls-3" d="M200.01,39.58c1.82.84,3.47,1.03,5.67.47,3.75-.95,5.63-4.46,4.69-8.16l-.08-.33c-.89,2.13-3.12,4.12-5.84,4.82-4.89,1.24-10.22-.66-11.68-6.45-1.41-5.58,2.11-10.67,8.42-12.27,8.59-2.17,13.91,3.07,15.88,10.89,2.18,8.63-1.66,15.37-9.88,17.45-3.18.8-6.44.59-8.89-.52l1.72-5.89ZM203.01,23.53c-2.61.66-3.61,2.69-3.21,4.28.62,2.44,3.06,2.86,5.26,2.31,1.71-.43,3.22-1.51,4.1-2.99-.73-2.2-2.73-4.46-6.15-3.6Z"/>
            </g>
            <g class="cls-1">
              <path class="cls-2" d="M200.01,39.58c1.82.84,3.47,1.03,5.67.47,3.75-.95,5.63-4.46,4.69-8.16l-.08-.33c-.89,2.13-3.12,4.12-5.84,4.82-4.89,1.24-10.22-.66-11.68-6.45-1.41-5.58,2.11-10.67,8.42-12.27,8.59-2.17,13.91,3.07,15.88,10.89,2.18,8.63-1.66,15.37-9.88,17.45-3.18.8-6.44.59-8.89-.52l1.72-5.89ZM203.01,23.53c-2.61.66-3.61,2.69-3.21,4.28.62,2.44,3.06,2.86,5.26,2.31,1.71-.43,3.22-1.51,4.1-2.99-.73-2.2-2.73-4.46-6.15-3.6Z"/>
            </g>
          </g>
          <g class="cls-1">
            <g class="cls-1">
              <path class="cls-3" d="M226.12,32.51c1.87.7,3.53.77,5.69.05,3.67-1.23,5.28-4.87,4.07-8.49l-.11-.32c-.73,2.19-2.8,4.35-5.47,5.24-4.78,1.6-10.24.1-12.13-5.55-1.83-5.46,1.3-10.8,7.48-12.87,8.41-2.81,14.1,2.02,16.65,9.67,2.82,8.45-.5,15.45-8.55,18.14-3.11,1.04-6.38,1.07-8.9.14l1.27-6.01ZM227.91,16.28c-2.55.85-3.4,2.95-2.88,4.51.8,2.39,3.27,2.63,5.42,1.91,1.67-.56,3.09-1.74,3.86-3.28-.89-2.14-3.06-4.25-6.41-3.13Z"/>
            </g>
            <g class="cls-1">
              <path class="cls-2" d="M226.12,32.51c1.87.7,3.53.77,5.69.05,3.67-1.23,5.28-4.87,4.07-8.49l-.11-.32c-.73,2.19-2.8,4.35-5.47,5.24-4.78,1.6-10.24.1-12.13-5.55-1.83-5.46,1.3-10.8,7.48-12.87,8.41-2.81,14.1,2.02,16.65,9.67,2.82,8.45-.5,15.45-8.55,18.14-3.11,1.04-6.38,1.07-8.9.14l1.27-6.01ZM227.91,16.28c-2.55.85-3.4,2.95-2.88,4.51.8,2.39,3.27,2.63,5.42,1.91,1.67-.56,3.09-1.74,3.86-3.28-.89-2.14-3.06-4.25-6.41-3.13Z"/>
            </g>
          </g>
          <g class="cls-1">
            <g class="cls-1">
              <path class="cls-3" d="M251.58,23.53c1.92.56,3.58.5,5.67-.38,3.56-1.5,4.9-5.25,3.43-8.77l-.13-.31c-.56,2.24-2.47,4.54-5.06,5.63-4.65,1.95-10.21.87-12.51-4.64-2.23-5.31.5-10.87,6.5-13.39,8.17-3.43,14.21.96,17.33,8.4,3.45,8.21.65,15.44-7.18,18.73-3.02,1.27-6.28,1.54-8.86.8l.82-6.08ZM252.15,7.21c-2.48,1.04-3.17,3.2-2.54,4.71.98,2.32,3.46,2.38,5.55,1.5,1.63-.68,2.96-1.97,3.61-3.56-1.05-2.07-3.37-4.01-6.62-2.64Z"/>
            </g>
            <g class="cls-1">
              <path class="cls-2" d="M251.58,23.53c1.92.56,3.58.5,5.67-.38,3.56-1.5,4.9-5.25,3.43-8.77l-.13-.31c-.56,2.24-2.47,4.54-5.06,5.63-4.65,1.95-10.21.87-12.51-4.64-2.23-5.31.5-10.87,6.5-13.39,8.17-3.43,14.21.96,17.33,8.4,3.45,8.21.65,15.44-7.18,18.73-3.02,1.27-6.28,1.54-8.86.8l.82-6.08ZM252.15,7.21c-2.48,1.04-3.17,3.2-2.54,4.71.98,2.32,3.46,2.38,5.55,1.5,1.63-.68,2.96-1.97,3.61-3.56-1.05-2.07-3.37-4.01-6.62-2.64Z"/>
            </g>
          </g>
        </g>
      </g>
    </g>
  </g>
</svg>