<?xml version="1.0" encoding="UTF-8"?>
<svg xmlns="http://www.w3.org/2000/svg" version="1.1" viewBox="0 0 862 440.2">
  <defs>
    <style>
      .cls-1 {
        fill: #bbd8f2;
      }

      .cls-2 {
        stroke-width: 2px;
      }

      .cls-2, .cls-3 {
        fill: none;
        stroke: #2e3192;
        stroke-miterlimit: 10;
      }

      .cls-3 {
        stroke-width: 2px;
      }

      .cls-4 {
        isolation: isolate;
      }
    </style>
  </defs>
  <!-- Generator: Adobe Illustrator 28.6.0, SVG Export Plug-In . SVG Version: 1.2.0 Build 709)  -->
  <g>
    <g id="Layer_2">
      <g id="HOME">
        <g id="TEXT">
          <g>
            <g class="cls-4">
              <g class="cls-4">
                <path class="cls-1" d="M61.8,97.6l10.7-27.7-21.1,23.7-4.7-1.8.3-31.7-10.7,27.7-10.6-4.1,15.8-41.1,14.7,5.7-.4,26.6,17.6-19.9,14.7,5.7-15.8,41.1-10.6-4.1Z"/>
              </g>
              <g class="cls-4">
                <path class="cls-3" d="M61.8,97.6l10.7-27.7-21.1,23.7-4.7-1.8.3-31.7-10.7,27.7-10.6-4.1,15.8-41.1,14.7,5.7-.4,26.6,17.6-19.9,14.7,5.7-15.8,41.1-10.6-4.1Z"/>
              </g>
            </g>
            <g class="cls-4">
              <g class="cls-4">
                <path class="cls-1" d="M107.8,83.8c8.3,4.5,11.1,13.8,6,23.4l-1,1.9-20-10.7c-.9,2.9.3,6.6,4.5,8.8,2.5,1.3,5.8,1.9,8.1,1.3l.8,7.6c-4.1,1-9.4-.3-13.7-2.6-8.7-4.7-12.3-13.9-7.4-23,4.4-8.1,14.1-11.4,22.8-6.7ZM95.7,92.4l11.6,6.2c.8-2.1.9-5.7-3.2-7.9-3.9-2.1-6.9-.1-8.3,1.7Z"/>
              </g>
              <g class="cls-4">
                <path class="cls-3" d="M107.8,83.8c8.3,4.5,11.1,13.8,6,23.4l-1,1.9-20-10.7c-.9,2.9.3,6.6,4.5,8.8,2.5,1.3,5.8,1.9,8.1,1.3l.8,7.6c-4.1,1-9.4-.3-13.7-2.6-8.7-4.7-12.3-13.9-7.4-23,4.4-8.1,14.1-11.4,22.8-6.7ZM95.7,92.4l11.6,6.2c.8-2.1.9-5.7-3.2-7.9-3.9-2.1-6.9-.1-8.3,1.7Z"/>
              </g>
            </g>
            <g class="cls-4">
              <g class="cls-4">
                <path class="cls-1" d="M140.2,103.3c7.9,5.2,9.7,14.8,3.7,23.8l-1.2,1.8-18.9-12.6c-1.2,2.8-.3,6.6,3.6,9.2,2.4,1.6,5.6,2.4,8,2.1v7.7c-4.1.6-9.3-1.2-13.4-3.9-8.2-5.4-11-15-5.2-23.6,5.1-7.7,15.1-10,23.4-4.5ZM127.4,110.7l10.9,7.3c1-2,1.4-5.6-2.5-8.2-3.7-2.4-6.9-.8-8.5.9Z"/>
              </g>
              <g class="cls-4">
                <path class="cls-3" d="M140.2,103.3c7.9,5.2,9.7,14.8,3.7,23.8l-1.2,1.8-18.9-12.6c-1.2,2.8-.3,6.6,3.6,9.2,2.4,1.6,5.6,2.4,8,2.1v7.7c-4.1.6-9.3-1.2-13.4-3.9-8.2-5.4-11-15-5.2-23.6,5.1-7.7,15.1-10,23.4-4.5ZM127.4,110.7l10.9,7.3c1-2,1.4-5.6-2.5-8.2-3.7-2.4-6.9-.8-8.5.9Z"/>
              </g>
            </g>
            <g class="cls-4">
              <g class="cls-4">
                <path class="cls-1" d="M145.6,136.6l8.9-11.4-4.2-3.3,5.5-7,4.2,3.3,5.4-6.9,7.9,6.2-5.4,6.8,5.1,4-5.5,7-5.1-4-7.2,9.1c-1.1,1.5-1.2,3.2.2,4.3.9.7,2,1.1,2.5,1l-3.2,7.2c-1.7.2-4.3-.7-7.2-3-5.1-4-5.8-8.7-2-13.5Z"/>
              </g>
              <g class="cls-4">
                <path class="cls-3" d="M145.6,136.6l8.9-11.4-4.2-3.3,5.5-7,4.2,3.3,5.4-6.9,7.9,6.2-5.4,6.8,5.1,4-5.5,7-5.1-4-7.2,9.1c-1.1,1.5-1.2,3.2.2,4.3.9.7,2,1.1,2.5,1l-3.2,7.2c-1.7.2-4.3-.7-7.2-3-5.1-4-5.8-8.7-2-13.5Z"/>
              </g>
            </g>
            <g class="cls-4">
              <g class="cls-4">
                <path class="cls-1" d="M177.4,163.5l9.5-10.9-4-3.5,5.8-6.7,4,3.5,5.7-6.6,7.6,6.6-5.7,6.6,4.9,4.2-5.8,6.7-4.9-4.2-7.6,8.8c-1.2,1.4-1.3,3.1,0,4.3.8.7,2,1.2,2.5,1.1l-3.5,7.1c-1.7,0-4.2-.9-7.1-3.3-4.9-4.2-5.4-9-1.4-13.6Z"/>
              </g>
              <g class="cls-4">
                <path class="cls-2" d="M177.4,163.5l9.5-10.9-4-3.5,5.8-6.7,4,3.5,5.7-6.6,7.6,6.6-5.7,6.6,4.9,4.2-5.8,6.7-4.9-4.2-7.6,8.8c-1.2,1.4-1.3,3.1,0,4.3.8.7,2,1.2,2.5,1.1l-3.5,7.1c-1.7,0-4.2-.9-7.1-3.3-4.9-4.2-5.4-9-1.4-13.6Z"/>
              </g>
            </g>
            <g class="cls-4">
              <g class="cls-4">
                <path class="cls-1" d="M209,199.3l10.8-15.1c2.3-3.2,1.3-5.4-1.3-7.3-2.4-1.7-5-1.5-6.8-1l-11.9,16.8-8.3-5.9,25.5-35.9,8.3,5.9-9.3,13.1c2.9-.7,7.3-.5,11.7,2.6,5.9,4.2,6.2,9.5,2.8,14.2l-13.2,18.5-8.3-5.9Z"/>
              </g>
              <g class="cls-4">
                <path class="cls-3" d="M209,199.3l10.8-15.1c2.3-3.2,1.3-5.4-1.3-7.3-2.4-1.7-5-1.5-6.8-1l-11.9,16.8-8.3-5.9,25.5-35.9,8.3,5.9-9.3,13.1c2.9-.7,7.3-.5,11.7,2.6,5.9,4.2,6.2,9.5,2.8,14.2l-13.2,18.5-8.3-5.9Z"/>
              </g>
            </g>
            <g class="cls-4">
              <g class="cls-4">
                <path class="cls-1" d="M255.9,189.9c8.2,4.6,10.9,14,5.6,23.4l-1.1,1.9-19.8-11c-.9,2.9.2,6.6,4.3,8.9,2.5,1.4,5.8,1.9,8.1,1.4l.7,7.6c-4.1.9-9.4-.4-13.7-2.8-8.6-4.8-12.1-14.1-7.1-23.1,4.5-8.1,14.2-11.2,22.9-6.3ZM243.7,198.4l11.5,6.4c.9-2.1,1-5.7-3.1-8-3.9-2.2-6.9-.2-8.4,1.6Z"/>
              </g>
              <g class="cls-4">
                <path class="cls-3" d="M255.9,189.9c8.2,4.6,10.9,14,5.6,23.4l-1.1,1.9-19.8-11c-.9,2.9.2,6.6,4.3,8.9,2.5,1.4,5.8,1.9,8.1,1.4l.7,7.6c-4.1.9-9.4-.4-13.7-2.8-8.6-4.8-12.1-14.1-7.1-23.1,4.5-8.1,14.2-11.2,22.9-6.3ZM243.7,198.4l11.5,6.4c.9-2.1,1-5.7-3.1-8-3.9-2.2-6.9-.2-8.4,1.6Z"/>
              </g>
            </g>
            <g class="cls-4">
              <g class="cls-4">
                <path class="cls-1" d="M298.2,244.5l6.3-17.3c1.3-3.7-.1-5.7-3.1-6.7-2.9-1-5.3-.2-6.9.8l-7,19.4-9.6-3.5,10.9-30,9.6,3.5-1.3,3.7c2.6-1.5,6.9-2.5,12-.6,6.8,2.5,8.5,7.6,6.5,13.1l-7.7,21.2-9.6-3.5Z"/>
              </g>
              <g class="cls-4">
                <path class="cls-3" d="M298.2,244.5l6.3-17.3c1.3-3.7-.1-5.7-3.1-6.7-2.9-1-5.3-.2-6.9.8l-7,19.4-9.6-3.5,10.9-30,9.6,3.5-1.3,3.7c2.6-1.5,6.9-2.5,12-.6,6.8,2.5,8.5,7.6,6.5,13.1l-7.7,21.2-9.6-3.5Z"/>
              </g>
            </g>
            <g class="cls-4">
              <g class="cls-4">
                <path class="cls-1" d="M340.8,223c9.2,2.2,14.2,10.6,11.7,21.1l-.5,2.1-22.1-5.3c-.1,3,1.9,6.3,6.6,7.4,2.8.7,6.1.3,8.2-.8l2.7,7.2c-3.7,2-9.2,2.1-14,1-9.6-2.3-15.4-10.3-13-20.4,2.2-9,10.7-14.6,20.4-12.2ZM331.4,234.4l12.8,3.1c.3-2.2-.6-5.8-5.1-6.9-4.3-1-6.7,1.6-7.6,3.8Z"/>
              </g>
              <g class="cls-4">
                <path class="cls-3" d="M340.8,223c9.2,2.2,14.2,10.6,11.7,21.1l-.5,2.1-22.1-5.3c-.1,3,1.9,6.3,6.6,7.4,2.8.7,6.1.3,8.2-.8l2.7,7.2c-3.7,2-9.2,2.1-14,1-9.6-2.3-15.4-10.3-13-20.4,2.2-9,10.7-14.6,20.4-12.2ZM331.4,234.4l12.8,3.1c.3-2.2-.6-5.8-5.1-6.9-4.3-1-6.7,1.6-7.6,3.8Z"/>
              </g>
            </g>
            <g class="cls-4">
              <g class="cls-4">
                <path class="cls-1" d="M385.3,263.4l-3.9-20.3-8,19-10.9-1.2-6-32.7,10.4,1.1,3,20,8.3-18.8,9,1,4.1,20.1,7.1-18.9,10.4,1.1-12.8,30.7-10.9-1.2Z"/>
              </g>
              <g class="cls-4">
                <path class="cls-3" d="M385.3,263.4l-3.9-20.3-8,19-10.9-1.2-6-32.7,10.4,1.1,3,20,8.3-18.8,9,1,4.1,20.1,7.1-18.9,10.4,1.1-12.8,30.7-10.9-1.2Z"/>
              </g>
            </g>
            <g class="cls-4">
              <g class="cls-4">
                <path class="cls-1" d="M427.9,232.2c9.4-.2,16.4,6.6,16.7,17.4v2.2s-22.7.5-22.7.5c.7,3,3.5,5.6,8.2,5.5,2.8,0,6-1.2,7.7-2.9l4.4,6.2c-3.1,2.9-8.4,4.4-13.2,4.5-9.8.2-17.5-6-17.8-16.4-.2-9.2,6.7-16.8,16.6-17ZM421.6,245.7l13.1-.3c-.3-2.2-2-5.4-6.7-5.3-4.4,0-6.1,3.3-6.4,5.6Z"/>
              </g>
              <g class="cls-4">
                <path class="cls-3" d="M427.9,232.2c9.4-.2,16.4,6.6,16.7,17.4v2.2s-22.7.5-22.7.5c.7,3,3.5,5.6,8.2,5.5,2.8,0,6-1.2,7.7-2.9l4.4,6.2c-3.1,2.9-8.4,4.4-13.2,4.5-9.8.2-17.5-6-17.8-16.4-.2-9.2,6.7-16.8,16.6-17ZM421.6,245.7l13.1-.3c-.3-2.2-2-5.4-6.7-5.3-4.4,0-6.1,3.3-6.4,5.6Z"/>
              </g>
            </g>
            <g class="cls-4">
              <g class="cls-4">
                <path class="cls-1" d="M452.4,252.6c2.6,1.8,7.9,3.3,11.6,2.9,3-.4,4.1-1.5,4-2.9-.2-1.6-2.4-2-5.8-2.1-5.5-.3-13.2-.5-14.2-8.5-.7-5.6,3.5-11,12.3-12,5.3-.6,10,.5,13.7,2.6l-3.1,7.1c-2.1-1.6-5.9-2.8-9.7-2.4-2.4.3-3.9,1.3-3.7,2.6.2,1.4,1.9,1.8,5.4,2,5.5.3,13.6.6,14.6,9,.7,6-4.1,11.1-13.2,12.2-5.6.7-11.7-.5-15.4-3.1l3.4-7.4Z"/>
              </g>
              <g class="cls-4">
                <path class="cls-3" d="M452.4,252.6c2.6,1.8,7.9,3.3,11.6,2.9,3-.4,4.1-1.5,4-2.9-.2-1.6-2.4-2-5.8-2.1-5.5-.3-13.2-.5-14.2-8.5-.7-5.6,3.5-11,12.3-12,5.3-.6,10,.5,13.7,2.6l-3.1,7.1c-2.1-1.6-5.9-2.8-9.7-2.4-2.4.3-3.9,1.3-3.7,2.6.2,1.4,1.9,1.8,5.4,2,5.5.3,13.6.6,14.6,9,.7,6-4.1,11.1-13.2,12.2-5.6.7-11.7-.5-15.4-3.1l3.4-7.4Z"/>
              </g>
            </g>
            <g class="cls-4">
              <g class="cls-4">
                <path class="cls-1" d="M486.9,250.3l-2.9-14.2-5.2,1.1-1.8-8.7,5.2-1.1-1.8-8.5,9.9-2,1.8,8.5,6.3-1.3,1.8,8.7-6.3,1.3,2.3,11.4c.4,1.8,1.7,3,3.4,2.6,1.1-.2,2.1-.8,2.4-1.3l3.5,7.1c-1,1.4-3.3,2.8-6.9,3.6-6.3,1.3-10.4-1.2-11.6-7.2Z"/>
              </g>
              <g class="cls-4">
                <path class="cls-3" d="M486.9,250.3l-2.9-14.2-5.2,1.1-1.8-8.7,5.2-1.1-1.8-8.5,9.9-2,1.8,8.5,6.3-1.3,1.8,8.7-6.3,1.3,2.3,11.4c.4,1.8,1.7,3,3.4,2.6,1.1-.2,2.1-.8,2.4-1.3l3.5,7.1c-1,1.4-3.3,2.8-6.9,3.6-6.3,1.3-10.4-1.2-11.6-7.2Z"/>
              </g>
            </g>
            <g class="cls-4">
              <g class="cls-4">
                <path class="cls-1" d="M569.7,234l-7.1-18.1c-.9-2.3-2.7-3.6-5.5-2.4-2.6,1-3.8,3.4-4.2,5l7.5,19.2-9.5,3.7-7.1-18.1c-.9-2.3-2.6-3.6-5.5-2.4-2.5,1-3.6,3.4-4.1,5l7.5,19.2-9.5,3.7-11.7-29.7,9.5-3.7,1.4,3.6c.6-2.2,3.4-6.4,8-8.2,4.2-1.7,7.9-1,10.5,2,.7-3.3,3.5-7.5,8.2-9.3,5.5-2.2,10-.7,12.4,5.4l8.5,21.5-9.4,3.7Z"/>
              </g>
              <g class="cls-4">
                <path class="cls-3" d="M569.7,234l-7.1-18.1c-.9-2.3-2.7-3.6-5.5-2.4-2.6,1-3.8,3.4-4.2,5l7.5,19.2-9.5,3.7-7.1-18.1c-.9-2.3-2.6-3.6-5.5-2.4-2.5,1-3.6,3.4-4.1,5l7.5,19.2-9.5,3.7-11.7-29.7,9.5-3.7,1.4,3.6c.6-2.2,3.4-6.4,8-8.2,4.2-1.7,7.9-1,10.5,2,.7-3.3,3.5-7.5,8.2-9.3,5.5-2.2,10-.7,12.4,5.4l8.5,21.5-9.4,3.7Z"/>
              </g>
            </g>
            <g class="cls-4">
              <g class="cls-4">
                <path class="cls-1" d="M587.3,188.4c8.2-4.6,17.6-2,22.9,7.4l1.1,1.9-19.8,11.2c2,2.3,5.7,3.3,9.9,1,2.5-1.4,4.7-3.9,5.5-6.2l6.9,3.4c-1.4,4-5.3,7.8-9.5,10.2-8.6,4.8-18.3,3-23.4-6-4.5-8-2.1-18,6.6-22.9ZM588.2,203.2l11.4-6.5c-1.3-1.8-4.4-3.8-8.4-1.5-3.9,2.2-3.8,5.8-3,8Z"/>
              </g>
              <g class="cls-4">
                <path class="cls-3" d="M587.3,188.4c8.2-4.6,17.6-2,22.9,7.4l1.1,1.9-19.8,11.2c2,2.3,5.7,3.3,9.9,1,2.5-1.4,4.7-3.9,5.5-6.2l6.9,3.4c-1.4,4-5.3,7.8-9.5,10.2-8.6,4.8-18.3,3-23.4-6-4.5-8-2.1-18,6.6-22.9ZM588.2,203.2l11.4-6.5c-1.3-1.8-4.4-3.8-8.4-1.5-3.9,2.2-3.8,5.8-3,8Z"/>
              </g>
            </g>
            <g class="cls-4">
              <g class="cls-4">
                <path class="cls-1" d="M657,180.2l-11.8-15.4c-1.5-1.9-3.5-2.7-6-.8-2.2,1.7-2.7,4.3-2.7,5.9l12.5,16.4-8.1,6.2-11.8-15.4c-1.5-1.9-3.5-2.7-6-.8-2.2,1.6-2.6,4.2-2.6,5.9l12.5,16.4-8.1,6.2-19.3-25.3,8.1-6.2,2.4,3.1c0-2.3,1.5-7,5.5-10.1,3.6-2.8,7.3-3.2,10.6-1-.2-3.3,1.3-8.2,5.3-11.2,4.7-3.6,9.4-3.4,13.4,1.8l14,18.4-8,6.1Z"/>
              </g>
              <g class="cls-4">
                <path class="cls-2" d="M657,180.2l-11.8-15.4c-1.5-1.9-3.5-2.7-6-.8-2.2,1.7-2.7,4.3-2.7,5.9l12.5,16.4-8.1,6.2-11.8-15.4c-1.5-1.9-3.5-2.7-6-.8-2.2,1.6-2.6,4.2-2.6,5.9l12.5,16.4-8.1,6.2-19.3-25.3,8.1-6.2,2.4,3.1c0-2.3,1.5-7,5.5-10.1,3.6-2.8,7.3-3.2,10.6-1-.2-3.3,1.3-8.2,5.3-11.2,4.7-3.6,9.4-3.4,13.4,1.8l14,18.4-8,6.1Z"/>
              </g>
            </g>
            <g class="cls-4">
              <g class="cls-4">
                <path class="cls-1" d="M672.9,165.4l-29.8-32.4,7.5-6.9,10.8,11.7c-.3-4,1.3-7.4,3.9-9.7,5.8-5.4,14.6-4.9,21.7,2.8,7.3,8,6.8,16.5,1,21.9-2.6,2.4-6,3.5-10,3.1l2.5,2.7-7.5,6.9ZM672.9,150.4c2.1.4,4.8-.5,6.4-2,3-2.7,3.2-7,0-10.5-3.2-3.5-7.5-3.6-10.4-.9-1.6,1.5-2.7,4.1-2.5,6.2l6.6,7.2Z"/>
              </g>
              <g class="cls-4">
                <path class="cls-3" d="M672.9,165.4l-29.8-32.4,7.5-6.9,10.8,11.7c-.3-4,1.3-7.4,3.9-9.7,5.8-5.4,14.6-4.9,21.7,2.8,7.3,8,6.8,16.5,1,21.9-2.6,2.4-6,3.5-10,3.1l2.5,2.7-7.5,6.9ZM672.9,150.4c2.1.4,4.8-.5,6.4-2,3-2.7,3.2-7,0-10.5-3.2-3.5-7.5-3.6-10.4-.9-1.6,1.5-2.7,4.1-2.5,6.2l6.6,7.2Z"/>
              </g>
            </g>
            <g class="cls-4">
              <g class="cls-4">
                <path class="cls-1" d="M693.3,104.6c7.5-5.7,17.2-4.3,23.7,4.3l1.3,1.7-18.1,13.7c2.3,2,6.1,2.5,9.9-.4,2.3-1.7,4.1-4.5,4.6-6.9l7.2,2.5c-.8,4.2-4.2,8.5-8.1,11.4-7.8,5.9-17.8,5.4-24-2.9-5.6-7.4-4.5-17.5,3.5-23.5ZM696.1,119.1l10.5-7.9c-1.6-1.6-4.8-3.2-8.6-.4-3.5,2.7-3,6.2-1.9,8.3Z"/>
              </g>
              <g class="cls-4">
                <path class="cls-3" d="M693.3,104.6c7.5-5.7,17.2-4.3,23.7,4.3l1.3,1.7-18.1,13.7c2.3,2,6.1,2.5,9.9-.4,2.3-1.7,4.1-4.5,4.6-6.9l7.2,2.5c-.8,4.2-4.2,8.5-8.1,11.4-7.8,5.9-17.8,5.4-24-2.9-5.6-7.4-4.5-17.5,3.5-23.5ZM696.1,119.1l10.5-7.9c-1.6-1.6-4.8-3.2-8.6-.4-3.5,2.7-3,6.2-1.9,8.3Z"/>
              </g>
            </g>
            <g class="cls-4">
              <g class="cls-4">
                <path class="cls-1" d="M729.3,119l-17-26.9,8.6-5.4,2.2,3.4c.4-3.3,2.6-7.4,5.8-9.4l5.3,8.3c-.6.1-1.4.5-2.3,1.1-2.2,1.4-4.6,4.2-4.7,6.5l10.8,17.1-8.6,5.4Z"/>
              </g>
              <g class="cls-4">
                <path class="cls-3" d="M729.3,119l-17-26.9,8.6-5.4,2.2,3.4c.4-3.3,2.6-7.4,5.8-9.4l5.3,8.3c-.6.1-1.4.5-2.3,1.1-2.2,1.4-4.6,4.2-4.7,6.5l10.8,17.1-8.6,5.4Z"/>
              </g>
            </g>
            <g class="cls-4">
              <g class="cls-4">
                <path class="cls-1" d="M746.6,95.3c3.1.8,8.6.2,11.9-1.5,2.7-1.4,3.3-2.9,2.7-4.1-.8-1.5-3-1-6.1.1-5.2,1.7-12.5,4.3-16.3-2.9-2.6-5-.7-11.5,7.2-15.7,4.7-2.5,9.5-3.1,13.8-2.5l-.3,7.8c-2.6-.7-6.5-.5-9.9,1.3-2.1,1.1-3.2,2.6-2.5,3.8.7,1.3,2.4.9,5.7-.1,5.2-1.7,12.9-4.3,16.9,3.1,2.8,5.4.2,11.8-7.9,16.1-5,2.7-11.1,3.7-15.5,2.7l.5-8.2Z"/>
              </g>
              <g class="cls-4">
                <path class="cls-3" d="M746.6,95.3c3.1.8,8.6.2,11.9-1.5,2.7-1.4,3.3-2.9,2.7-4.1-.8-1.5-3-1-6.1.1-5.2,1.7-12.5,4.3-16.3-2.9-2.6-5-.7-11.5,7.2-15.7,4.7-2.5,9.5-3.1,13.8-2.5l-.3,7.8c-2.6-.7-6.5-.5-9.9,1.3-2.1,1.1-3.2,2.6-2.5,3.8.7,1.3,2.4.9,5.7-.1,5.2-1.7,12.9-4.3,16.9,3.1,2.8,5.4.2,11.8-7.9,16.1-5,2.7-11.1,3.7-15.5,2.7l.5-8.2Z"/>
              </g>
            </g>
            <g class="cls-4">
              <g class="cls-4">
                <path class="cls-1" d="M785.7,70.4c-3.1-8.4.4-17.9,10.6-21.6,10.3-3.8,19,1.3,22.1,9.7,3.1,8.4-.3,18-10.6,21.7-10.2,3.7-19-1.3-22.1-9.8ZM808.5,62c-1.5-4-5-6.4-9.2-4.8-4.2,1.5-5.2,5.6-3.8,9.6,1.5,4,5,6.5,9.1,5,4.2-1.5,5.4-5.7,3.9-9.7Z"/>
              </g>
              <g class="cls-4">
                <path class="cls-3" d="M785.7,70.4c-3.1-8.4.4-17.9,10.6-21.6,10.3-3.8,19,1.3,22.1,9.7,3.1,8.4-.3,18-10.6,21.7-10.2,3.7-19-1.3-22.1-9.8ZM808.5,62c-1.5-4-5-6.4-9.2-4.8-4.2,1.5-5.2,5.6-3.8,9.6,1.5,4,5,6.5,9.1,5,4.2-1.5,5.4-5.7,3.9-9.7Z"/>
              </g>
            </g>
            <g class="cls-4">
              <g class="cls-4">
                <path class="cls-1" d="M834,46.9l6.1,22.2-9.8,2.7-6.1-22.2-5.1,1.4-2.3-8.5,5.1-1.4-.4-1.5c-1.8-6.6,1.7-12.1,8-13.8,2.7-.7,5.1-.8,6.9-.4v7.2c-.8-.2-1.8-.2-2.7,0-2,.6-3,2.2-2.4,4.6l.3,1.3,6.2-1.7,2.3,8.5-6.2,1.7Z"/>
              </g>
              <g class="cls-4">
                <path class="cls-3" d="M834,46.9l6.1,22.2-9.8,2.7-6.1-22.2-5.1,1.4-2.3-8.5,5.1-1.4-.4-1.5c-1.8-6.6,1.7-12.1,8-13.8,2.7-.7,5.1-.8,6.9-.4v7.2c-.8-.2-1.8-.2-2.7,0-2,.6-3,2.2-2.4,4.6l.3,1.3,6.2-1.7,2.3,8.5-6.2,1.7Z"/>
              </g>
            </g>
            <g class="cls-4">
              <g class="cls-4">
                <path class="cls-1" d="M16.5,243.5l17.7-45.7c2.2-5.7,5.7-9.6,10.5-11.9s10-2.3,15.5-.2c6.5,2.5,10.3,7.4,11.5,14.8,3.4-2.4,6.6-3.8,9.5-4.2,3-.4,6.3,0,9.9,1.4,5.7,2.2,9.4,5.7,11,10.5,1.6,4.8,1.2,10.5-1.4,17.3l-17.1,44.1-18.9-7.3,16-41.2c.8-2,1.2-3.5,1.1-4.3s-.6-1.4-1.6-1.8c-1.9-.7-3.4.5-4.6,3.7l-16.1,41.6-18.9-7.3,16-41.2c.8-2,1.1-3.4,1.1-4.2,0-.8-.6-1.4-1.6-1.8-1.9-.7-3.4.6-4.7,4l-16,41.2-18.9-7.3Z"/>
              </g>
              <g class="cls-4">
                <path class="cls-3" d="M16.5,243.5l17.7-45.7c2.2-5.7,5.7-9.6,10.5-11.9s10-2.3,15.5-.2c6.5,2.5,10.3,7.4,11.5,14.8,3.4-2.4,6.6-3.8,9.5-4.2,3-.4,6.3,0,9.9,1.4,5.7,2.2,9.4,5.7,11,10.5,1.6,4.8,1.2,10.5-1.4,17.3l-17.1,44.1-18.9-7.3,16-41.2c.8-2,1.2-3.5,1.1-4.3s-.6-1.4-1.6-1.8c-1.9-.7-3.4.5-4.6,3.7l-16.1,41.6-18.9-7.3,16-41.2c.8-2,1.1-3.4,1.1-4.2,0-.8-.6-1.4-1.6-1.8-1.9-.7-3.4.6-4.7,4l-16,41.2-18.9-7.3Z"/>
              </g>
            </g>
            <g class="cls-4">
              <g class="cls-4">
                <path class="cls-1" d="M123.5,272.6l-10.1,16.4c-1.4-.6-2.7-1.2-3.8-1.9-6.4-3.9-10.4-9.3-12-16.1-1.7-6.8-.5-13.3,3.4-19.6,3.8-6.1,9.1-10,16.1-11.6,6.9-1.6,13.4-.5,19.6,3.2,6.8,4.2,11,9.5,12.5,16,1.5,6.4,0,13.1-4.2,20l-12.8,20.7-15.8-9.8,12.1-19.6c1.4-2.2,1.9-4.3,1.7-6.3-.3-2-1.3-3.6-3.2-4.7-1.7-1-3.5-1.3-5.4-.8-2,.5-3.5,1.5-4.5,3.2-1.1,1.8-1.4,3.5-1,5.3.4,1.8,1.5,3.2,3.1,4.3,1.4.9,2.9,1.3,4.5,1.3Z"/>
              </g>
              <g class="cls-4">
                <path class="cls-3" d="M123.5,272.6l-10.1,16.4c-1.4-.6-2.7-1.2-3.8-1.9-6.4-3.9-10.4-9.3-12-16.1-1.7-6.8-.5-13.3,3.4-19.6,3.8-6.1,9.1-10,16.1-11.6,6.9-1.6,13.4-.5,19.6,3.2,6.8,4.2,11,9.5,12.5,16,1.5,6.4,0,13.1-4.2,20l-12.8,20.7-15.8-9.8,12.1-19.6c1.4-2.2,1.9-4.3,1.7-6.3-.3-2-1.3-3.6-3.2-4.7-1.7-1-3.5-1.3-5.4-.8-2,.5-3.5,1.5-4.5,3.2-1.1,1.8-1.4,3.5-1,5.3.4,1.8,1.5,3.2,3.1,4.3,1.4.9,2.9,1.3,4.5,1.3Z"/>
              </g>
            </g>
            <g class="cls-4">
              <g class="cls-4">
                <path class="cls-1" d="M190.2,319.4l-21.7-18c.6-1.4,1.2-2.5,2-3.4,1.1-1.3,2.3-2.3,3.8-3.2l7.3,6c1.8-3.3,1.4-6-1.3-8.2-1.8-1.5-3.9-1.9-6.3-1.3-2.4.6-4.6,2.1-6.5,4.5-2.1,2.5-3.2,4.9-3.4,7.4-.2,2.4.6,4.4,2.4,5.8,1.4,1.2,3.4,1.6,5.9,1.3v16.6c-6.3-.2-11.7-2.2-16.4-6-5.7-4.7-8.9-10.6-9.6-17.6-.7-7,1.3-13.3,5.9-19,4.6-5.6,10.5-8.7,17.6-9.3,7.1-.6,13.5,1.4,19.2,6.1,5.5,4.6,8.6,10.3,9.3,17.2.6,6.9-1.3,13.1-5.9,18.6-.5.6-1.3,1.4-2.4,2.6Z"/>
              </g>
              <g class="cls-4">
                <path class="cls-3" d="M190.2,319.4l-21.7-18c.6-1.4,1.2-2.5,2-3.4,1.1-1.3,2.3-2.3,3.8-3.2l7.3,6c1.8-3.3,1.4-6-1.3-8.2-1.8-1.5-3.9-1.9-6.3-1.3-2.4.6-4.6,2.1-6.5,4.5-2.1,2.5-3.2,4.9-3.4,7.4-.2,2.4.6,4.4,2.4,5.8,1.4,1.2,3.4,1.6,5.9,1.3v16.6c-6.3-.2-11.7-2.2-16.4-6-5.7-4.7-8.9-10.6-9.6-17.6-.7-7,1.3-13.3,5.9-19,4.6-5.6,10.5-8.7,17.6-9.3,7.1-.6,13.5,1.4,19.2,6.1,5.5,4.6,8.6,10.3,9.3,17.2.6,6.9-1.3,13.1-5.9,18.6-.5.6-1.3,1.4-2.4,2.6Z"/>
              </g>
            </g>
            <g class="cls-4">
              <g class="cls-4">
                <path class="cls-1" d="M237.3,323.3l-12,15.5c-2.1-1.6-3.8-2.3-5.2-2.1-1.4.2-3,1.3-5,3.5-6.5,7.1-13.6,10.2-21.2,9.3-4-.5-8.6-2.7-13.6-6.6l-2.1-1.6,12-15.6.7.5c2.4,1.8,4.4,2.6,6.2,2.4,1.8-.2,3.7-1.5,5.8-3.8,3.3-3.9,5.9-6.4,7.7-7.6,1.8-1.2,4.1-2,7-2.3,5.1-.6,10.2,1.1,15.3,5.1l4.5,3.4Z"/>
              </g>
              <g class="cls-4">
                <path class="cls-3" d="M237.3,323.3l-12,15.5c-2.1-1.6-3.8-2.3-5.2-2.1-1.4.2-3,1.3-5,3.5-6.5,7.1-13.6,10.2-21.2,9.3-4-.5-8.6-2.7-13.6-6.6l-2.1-1.6,12-15.6.7.5c2.4,1.8,4.4,2.6,6.2,2.4,1.8-.2,3.7-1.5,5.8-3.8,3.3-3.9,5.9-6.4,7.7-7.6,1.8-1.2,4.1-2,7-2.3,5.1-.6,10.2,1.1,15.3,5.1l4.5,3.4Z"/>
              </g>
            </g>
            <g class="cls-4">
              <g class="cls-4">
                <path class="cls-1" d="M266.1,318.6l-9.9,16.2,7.1,4.4-10.3,16.8-7.1-4.4c-2.1,3.4-3,6-2.7,7.9.3,1.9,1.8,3.8,4.7,5.5l-10.2,16.7c-.8-.5-1.5-.8-1.9-1.1-3.6-2.2-6.5-5.1-8.6-8.7-2.2-3.6-3.3-7.4-3.5-11.5-.2-5.1,1.5-10.7,5.2-16.8l21.3-34.8,15.9,9.7Z"/>
              </g>
              <g class="cls-4">
                <path class="cls-3" d="M266.1,318.6l-9.9,16.2,7.1,4.4-10.3,16.8-7.1-4.4c-2.1,3.4-3,6-2.7,7.9.3,1.9,1.8,3.8,4.7,5.5l-10.2,16.7c-.8-.5-1.5-.8-1.9-1.1-3.6-2.2-6.5-5.1-8.6-8.7-2.2-3.6-3.3-7.4-3.5-11.5-.2-5.1,1.5-10.7,5.2-16.8l21.3-34.8,15.9,9.7Z"/>
              </g>
            </g>
            <g class="cls-4">
              <g class="cls-4">
                <path class="cls-1" d="M296,353.9l-8.6,18c-.9-1.2-1.8-2.1-2.7-2.5-3.1-1.5-5.7.1-7.9,4.8l-10.2,21.2-16.8-8,11.7-24.5c3.1-6.5,7.3-10.8,12.7-12.9,5.4-2.2,11-1.8,16.9,1,1.3.6,2.9,1.6,4.9,2.9Z"/>
              </g>
              <g class="cls-4">
                <path class="cls-3" d="M296,353.9l-8.6,18c-.9-1.2-1.8-2.1-2.7-2.5-3.1-1.5-5.7.1-7.9,4.8l-10.2,21.2-16.8-8,11.7-24.5c3.1-6.5,7.3-10.8,12.7-12.9,5.4-2.2,11-1.8,16.9,1,1.3.6,2.9,1.6,4.9,2.9Z"/>
              </g>
            </g>
            <g class="cls-4">
              <g class="cls-4">
                <path class="cls-1" d="M322.7,362.7c6.7,2.1,11.7,6.4,14.9,12.7,3.2,6.4,3.8,12.9,1.6,19.6-2.2,6.8-6.5,11.9-12.9,15.1-6.4,3.3-13,3.8-19.9,1.6-6.9-2.2-12-6.5-15.3-12.9-3.3-6.4-3.9-13-1.7-19.8,2.2-6.9,6.5-12,12.9-15.1,6.4-3.2,13.1-3.6,20.3-1.3ZM316.7,380c-1.9-.6-3.7-.4-5.5.5-1.8.9-3,2.4-3.6,4.4-.6,2-.5,3.9.4,5.7.9,1.8,2.3,3,4.1,3.6,1.9.6,3.7.4,5.5-.5,1.8-1,3-2.4,3.6-4.4.6-2,.5-3.9-.4-5.7-.9-1.8-2.3-3-4.2-3.6Z"/>
              </g>
              <g class="cls-4">
                <path class="cls-3" d="M322.7,362.7c6.7,2.1,11.7,6.4,14.9,12.7,3.2,6.4,3.8,12.9,1.6,19.6-2.2,6.8-6.5,11.9-12.9,15.1-6.4,3.3-13,3.8-19.9,1.6-6.9-2.2-12-6.5-15.3-12.9-3.3-6.4-3.9-13-1.7-19.8,2.2-6.9,6.5-12,12.9-15.1,6.4-3.2,13.1-3.6,20.3-1.3ZM316.7,380c-1.9-.6-3.7-.4-5.5.5-1.8.9-3,2.4-3.6,4.4-.6,2-.5,3.9.4,5.7.9,1.8,2.3,3,4.1,3.6,1.9.6,3.7.4,5.5-.5,1.8-1,3-2.4,3.6-4.4.6-2,.5-3.9-.4-5.7-.9-1.8-2.3-3-4.2-3.6Z"/>
              </g>
            </g>
            <g class="cls-4">
              <g class="cls-4">
                <path class="cls-1" d="M365.7,381.6l.6-3.6c-3.2-.7-5.7-2.3-7.4-4.8-1.7-2.5-2.3-5.3-1.8-8.4.5-3.3,2.1-5.9,4.7-7.8,2.6-1.9,5.5-2.5,8.8-2,3.2.5,5.7,2.1,7.4,4.7,1.8,2.6,2.4,5.6,1.9,8.9-.6,3.5-2.1,6.4-4.7,8.7-2.6,2.3-5.7,3.7-9.5,4.2Z"/>
              </g>
              <g class="cls-4">
                <path class="cls-3" d="M365.7,381.6l.6-3.6c-3.2-.7-5.7-2.3-7.4-4.8-1.7-2.5-2.3-5.3-1.8-8.4.5-3.3,2.1-5.9,4.7-7.8,2.6-1.9,5.5-2.5,8.8-2,3.2.5,5.7,2.1,7.4,4.7,1.8,2.6,2.4,5.6,1.9,8.9-.6,3.5-2.1,6.4-4.7,8.7-2.6,2.3-5.7,3.7-9.5,4.2Z"/>
              </g>
            </g>
            <g class="cls-4">
              <g class="cls-4">
                <path class="cls-1" d="M421.7,379.9l-1,19.6c-2.6-.1-4.4.3-5.5,1.2-1,.9-1.7,2.8-2.2,5.7-1.3,9.5-5.4,16.1-12.2,19.7-3.6,1.9-8.6,2.7-15,2.3h-2.6c0-.1,1-19.8,1-19.8h.8c3,.2,5.1-.3,6.5-1.5,1.3-1.2,2.2-3.3,2.5-6.4.5-5.1,1.2-8.6,2-10.6.8-2,2.3-4,4.5-5.9,3.8-3.4,9-4.9,15.4-4.6l5.6.3Z"/>
              </g>
              <g class="cls-4">
                <path class="cls-3" d="M421.7,379.9l-1,19.6c-2.6-.1-4.4.3-5.5,1.2-1,.9-1.7,2.8-2.2,5.7-1.3,9.5-5.4,16.1-12.2,19.7-3.6,1.9-8.6,2.7-15,2.3h-2.6c0-.1,1-19.8,1-19.8h.8c3,.2,5.1-.3,6.5-1.5,1.3-1.2,2.2-3.3,2.5-6.4.5-5.1,1.2-8.6,2-10.6.8-2,2.3-4,4.5-5.9,3.8-3.4,9-4.9,15.4-4.6l5.6.3Z"/>
              </g>
            </g>
            <g class="cls-4">
              <g class="cls-4">
                <path class="cls-1" d="M481,352.6c9.4-1.9,18.2-.1,26.4,5.4,8.1,5.5,13.2,13,15.1,22.6,2,9.7.2,18.7-5.2,26.9-5.4,8.2-13,13.2-22.7,15.2-9.7,2-18.6.2-26.8-5.3-8.2-5.5-13.3-13-15.2-22.7-2-9.8-.2-18.7,5.3-26.9,5.5-8.2,13.3-13.2,23.2-15.3ZM484.4,372.4c-4.1.8-7.2,3-9.5,6.6-2.3,3.6-3,7.5-2.1,11.7.9,4.2,3,7.6,6.5,10,3.5,2.4,7.2,3.2,11.3,2.4,4.1-.8,7.3-3,9.5-6.6,2.2-3.6,2.9-7.5,2.1-11.7s-3-7.6-6.5-10c-3.5-2.4-7.2-3.2-11.3-2.4Z"/>
              </g>
              <g class="cls-4">
                <path class="cls-3" d="M481,352.6c9.4-1.9,18.2-.1,26.4,5.4,8.1,5.5,13.2,13,15.1,22.6,2,9.7.2,18.7-5.2,26.9-5.4,8.2-13,13.2-22.7,15.2-9.7,2-18.6.2-26.8-5.3-8.2-5.5-13.3-13-15.2-22.7-2-9.8-.2-18.7,5.3-26.9,5.5-8.2,13.3-13.2,23.2-15.3ZM484.4,372.4c-4.1.8-7.2,3-9.5,6.6-2.3,3.6-3,7.5-2.1,11.7.9,4.2,3,7.6,6.5,10,3.5,2.4,7.2,3.2,11.3,2.4,4.1-.8,7.3-3,9.5-6.6,2.2-3.6,2.9-7.5,2.1-11.7s-3-7.6-6.5-10c-3.5-2.4-7.2-3.2-11.3-2.4Z"/>
              </g>
            </g>
            <g class="cls-4">
              <g class="cls-4">
                <path class="cls-1" d="M550.9,351.1l7.2,18.6c-1.5-.2-2.7-.1-3.7.2-3.2,1.2-3.8,4.2-2,9.1l8.5,22-17.4,6.7-9.7-25.3c-2.6-6.7-2.8-12.7-.7-18.1,2.1-5.4,6.2-9.3,12.3-11.6,1.4-.5,3.2-1,5.5-1.5Z"/>
              </g>
              <g class="cls-4">
                <path class="cls-3" d="M550.9,351.1l7.2,18.6c-1.5-.2-2.7-.1-3.7.2-3.2,1.2-3.8,4.2-2,9.1l8.5,22-17.4,6.7-9.7-25.3c-2.6-6.7-2.8-12.7-.7-18.1,2.1-5.4,6.2-9.3,12.3-11.6,1.4-.5,3.2-1,5.5-1.5Z"/>
              </g>
            </g>
            <g class="cls-4">
              <g class="cls-4">
                <path class="cls-1" d="M595.2,358.7l15.8-9.5c3,6.5,3.5,13,1.5,19.4-2,6.4-6,11.2-12,14.6-6.4,3.5-13,4.3-19.9,2.3-6.9-2-12.1-6.2-15.6-12.7-3.4-6.1-4.1-12.6-2-19.4,2-6.8,6.2-11.9,12.4-15.4,5.4-3,11.2-3.9,17.2-2.8,6.1,1.1,11.1,4.1,15,8.8l-16.2,9.7c-2.5-1.1-4.8-1-6.9.2-1.9,1-3,2.5-3.6,4.4-.5,1.9-.3,3.7.8,5.6,1,1.9,2.6,3.1,4.5,3.7,2,.6,3.9.3,5.8-.7,2.8-1.5,3.8-4.2,3.2-8.1Z"/>
              </g>
              <g class="cls-4">
                <path class="cls-3" d="M595.2,358.7l15.8-9.5c3,6.5,3.5,13,1.5,19.4-2,6.4-6,11.2-12,14.6-6.4,3.5-13,4.3-19.9,2.3-6.9-2-12.1-6.2-15.6-12.7-3.4-6.1-4.1-12.6-2-19.4,2-6.8,6.2-11.9,12.4-15.4,5.4-3,11.2-3.9,17.2-2.8,6.1,1.1,11.1,4.1,15,8.8l-16.2,9.7c-2.5-1.1-4.8-1-6.9.2-1.9,1-3,2.5-3.6,4.4-.5,1.9-.3,3.7.8,5.6,1,1.9,2.6,3.1,4.5,3.7,2,.6,3.9.3,5.8-.7,2.8-1.5,3.8-4.2,3.2-8.1Z"/>
              </g>
            </g>
            <g class="cls-4">
              <g class="cls-4">
                <path class="cls-1" d="M607.3,296.1l13,16.2c1-3.8,2.8-6.6,5.2-8.6,3.7-3,7.8-4,12.1-3.1,4.3.9,8.4,3.7,12,8.3l19.7,24.6-14.6,11.6-16.4-20.5c-1.3-1.7-2.4-2.6-3.2-2.9-.8-.3-1.7,0-2.7.8-1.6,1.3-1.5,3.2.4,5.6l16.9,21.1-14.6,11.6-42.4-53.1,14.6-11.6Z"/>
              </g>
              <g class="cls-4">
                <path class="cls-3" d="M607.3,296.1l13,16.2c1-3.8,2.8-6.6,5.2-8.6,3.7-3,7.8-4,12.1-3.1,4.3.9,8.4,3.7,12,8.3l19.7,24.6-14.6,11.6-16.4-20.5c-1.3-1.7-2.4-2.6-3.2-2.9-.8-.3-1.7,0-2.7.8-1.6,1.3-1.5,3.2.4,5.6l16.9,21.1-14.6,11.6-42.4-53.1,14.6-11.6Z"/>
              </g>
            </g>
            <g class="cls-4">
              <g class="cls-4">
                <path class="cls-1" d="M700.4,275.2l-21.4,18.4c-1.3-.8-2.3-1.7-3.1-2.6-1.1-1.3-1.9-2.7-2.5-4.3l7.2-6.2c-2.9-2.4-5.7-2.4-8.3-.1-1.8,1.5-2.6,3.5-2.4,5.9.2,2.5,1.3,4.8,3.3,7.2,2.1,2.4,4.3,4,6.7,4.6,2.4.6,4.4.1,6.2-1.3,1.4-1.2,2.2-3.1,2.3-5.6l16.4,2.8c-1.2,6.2-4.1,11.2-8.7,15.2-5.6,4.8-11.9,6.9-18.9,6.5-7-.5-12.9-3.5-17.7-9.1-4.7-5.5-6.8-11.8-6.2-18.9.6-7.1,3.7-13.1,9.3-17.8,5.5-4.7,11.7-6.8,18.6-6.2,6.9.5,12.7,3.5,17.4,9,.5.6,1.2,1.5,2.1,2.8Z"/>
              </g>
              <g class="cls-4">
                <path class="cls-3" d="M700.4,275.2l-21.4,18.4c-1.3-.8-2.3-1.7-3.1-2.6-1.1-1.3-1.9-2.7-2.5-4.3l7.2-6.2c-2.9-2.4-5.7-2.4-8.3-.1-1.8,1.5-2.6,3.5-2.4,5.9.2,2.5,1.3,4.8,3.3,7.2,2.1,2.4,4.3,4,6.7,4.6,2.4.6,4.4.1,6.2-1.3,1.4-1.2,2.2-3.1,2.3-5.6l16.4,2.8c-1.2,6.2-4.1,11.2-8.7,15.2-5.6,4.8-11.9,6.9-18.9,6.5-7-.5-12.9-3.5-17.7-9.1-4.7-5.5-6.8-11.8-6.2-18.9.6-7.1,3.7-13.1,9.3-17.8,5.5-4.7,11.7-6.8,18.6-6.2,6.9.5,12.7,3.5,17.4,9,.5.6,1.2,1.5,2.1,2.8Z"/>
              </g>
            </g>
            <g class="cls-4">
              <g class="cls-4">
                <path class="cls-1" d="M718.5,231l10.8,16.4c-2.2,1.4-3.4,2.8-3.7,4.2-.3,1.4.3,3.3,1.6,5.9,4.6,8.5,5.2,16.2,1.9,23.1-1.8,3.6-5.3,7.2-10.7,10.8l-2.2,1.4-10.9-16.5.7-.5c2.5-1.6,3.9-3.3,4.3-5.1.4-1.7-.2-4-1.8-6.7-2.6-4.4-4.2-7.6-4.7-9.7-.6-2.1-.5-4.6,0-7.4,1.1-5,4.3-9.3,9.7-12.8l4.7-3.1Z"/>
              </g>
              <g class="cls-4">
                <path class="cls-3" d="M718.5,231l10.8,16.4c-2.2,1.4-3.4,2.8-3.7,4.2-.3,1.4.3,3.3,1.6,5.9,4.6,8.5,5.2,16.2,1.9,23.1-1.8,3.6-5.3,7.2-10.7,10.8l-2.2,1.4-10.9-16.5.7-.5c2.5-1.6,3.9-3.3,4.3-5.1.4-1.7-.2-4-1.8-6.7-2.6-4.4-4.2-7.6-4.7-9.7-.6-2.1-.5-4.6,0-7.4,1.1-5,4.3-9.3,9.7-12.8l4.7-3.1Z"/>
              </g>
            </g>
            <g class="cls-4">
              <g class="cls-4">
                <path class="cls-1" d="M732,202l9,16.8,7.4-4,9.3,17.3-7.4,4c1.9,3.5,3.7,5.6,5.5,6.3,1.8.7,4.2.3,7.1-1.3l9.3,17.2c-.8.5-1.5.8-1.9,1.1-3.7,2-7.7,3-11.9,3.1-4.2,0-8.1-.9-11.7-2.8-4.5-2.4-8.5-6.8-11.8-13l-19.3-35.9,16.4-8.8Z"/>
              </g>
              <g class="cls-4">
                <path class="cls-3" d="M732,202l9,16.8,7.4-4,9.3,17.3-7.4,4c1.9,3.5,3.7,5.6,5.5,6.3,1.8.7,4.2.3,7.1-1.3l9.3,17.2c-.8.5-1.5.8-1.9,1.1-3.7,2-7.7,3-11.9,3.1-4.2,0-8.1-.9-11.7-2.8-4.5-2.4-8.5-6.8-11.8-13l-19.3-35.9,16.4-8.8Z"/>
              </g>
            </g>
            <g class="cls-4">
              <g class="cls-4">
                <path class="cls-1" d="M783.7,197.9l7.9,18.3c-1.5-.2-2.7,0-3.7.4-3.1,1.3-3.6,4.4-1.6,9.1l9.3,21.6-17.1,7.4-10.7-24.9c-2.8-6.6-3.3-12.6-1.4-18.1s5.9-9.5,11.9-12.1c1.3-.6,3.2-1.2,5.4-1.7Z"/>
              </g>
              <g class="cls-4">
                <path class="cls-3" d="M783.7,197.9l7.9,18.3c-1.5-.2-2.7,0-3.7.4-3.1,1.3-3.6,4.4-1.6,9.1l9.3,21.6-17.1,7.4-10.7-24.9c-2.8-6.6-3.3-12.6-1.4-18.1s5.9-9.5,11.9-12.1c1.3-.6,3.2-1.2,5.4-1.7Z"/>
              </g>
            </g>
            <g class="cls-4">
              <g class="cls-4">
                <path class="cls-1" d="M827.9,216.6l5.4,18.5c-1.4.7-2.7,1.2-3.9,1.6-7.2,2.1-13.8,1.5-20-1.8-6.2-3.3-10.3-8.5-12.4-15.6-2-6.9-1.3-13.5,2.1-19.7,3.4-6.2,8.6-10.4,15.5-12.4,7.7-2.3,14.4-1.8,20.2,1.4s9.8,8.7,12.1,16.5l6.9,23.4-17.9,5.3-6.5-22.1c-.7-2.5-1.9-4.3-3.6-5.5-1.7-1.1-3.5-1.4-5.6-.8-1.9.6-3.3,1.7-4.3,3.5-1,1.8-1.2,3.6-.6,5.5.6,2,1.7,3.4,3.3,4.3,1.6.9,3.4,1.1,5.3.5,1.6-.5,2.9-1.3,4-2.5Z"/>
              </g>
              <g class="cls-4">
                <path class="cls-3" d="M827.9,216.6l5.4,18.5c-1.4.7-2.7,1.2-3.9,1.6-7.2,2.1-13.8,1.5-20-1.8-6.2-3.3-10.3-8.5-12.4-15.6-2-6.9-1.3-13.5,2.1-19.7,3.4-6.2,8.6-10.4,15.5-12.4,7.7-2.3,14.4-1.8,20.2,1.4s9.8,8.7,12.1,16.5l6.9,23.4-17.9,5.3-6.5-22.1c-.7-2.5-1.9-4.3-3.6-5.5-1.7-1.1-3.5-1.4-5.6-.8-1.9.6-3.3,1.7-4.3,3.5-1,1.8-1.2,3.6-.6,5.5.6,2,1.7,3.4,3.3,4.3,1.6.9,3.4,1.1,5.3.5,1.6-.5,2.9-1.3,4-2.5Z"/>
              </g>
            </g>
          </g>
        </g>
      </g>
    </g>
  </g>
</svg>