<?xml version="1.0" encoding="UTF-8"?>
<svg id="Layer_2" xmlns="http://www.w3.org/2000/svg" viewBox="0 0 1763.51 399.16">
  <defs>
    <style>
      .cls-1 {
        fill: #fff7ef;
        font-family: ProximaNova-Black, 'Proxima Nova';
        font-size: 42px;
        font-weight: 800;
        stroke: #2e3192;
        stroke-miterlimit: 10;
      }
    </style>
  </defs>
  <g id="KEEP_SCROLLING">
    <g id="TEXT">
      <g>
        <text class="cls-1" transform="translate(754.67 188.05) rotate(17.19)"><tspan x="0" y="0">7</tspan></text>
        <text class="cls-1" transform="translate(778.84 195.42) rotate(13.57)"><tspan x="0" y="0">1</tspan></text>
        <text class="cls-1" transform="translate(799.63 200.47) rotate(9.95)"><tspan x="0" y="0">7</tspan></text>
        <text class="cls-1" transform="translate(820.43 204.05) rotate(7.64)"><tspan x="0" y="0">.</tspan></text>
        <text class="cls-1" transform="translate(833.12 205.92) rotate(4.57)"><tspan x="0" y="0">6</tspan></text>
        <text class="cls-1" transform="translate(860.66 208.06) rotate(.46)"><tspan x="0" y="0">4</tspan></text>
        <text class="cls-1" transform="translate(888.57 208.19) rotate(-3.82)"><tspan x="0" y="0">2</tspan></text>
        <text class="cls-1" transform="translate(915.19 206.2) rotate(-6.85)"><tspan x="0" y="0">.</tspan></text>
        <text class="cls-1" transform="translate(927.97 204.84) rotate(-9.94)"><tspan x="0" y="0">9</tspan></text>
        <text class="cls-1" transform="translate(955.09 200.04) rotate(-14.2)"><tspan x="0" y="0">9</tspan></text>
        <text class="cls-1" transform="translate(981.85 193.21) rotate(-18.49)"><tspan x="0" y="0">9</tspan></text>
        <text class="cls-1" transform="translate(1007.98 184.42) rotate(-22.76)"><tspan x="0" y="0">9</tspan></text>
      </g>
    </g>
  </g>
</svg>