<?xml version="1.0" encoding="UTF-8"?>
<svg id="Layer_2" xmlns="http://www.w3.org/2000/svg" viewBox="0 0 543.37 155.09">
  <defs>
    <style>
      .cls-1 {
        fill: #bbd8f2;
      }

      .cls-2 {
        fill: #2e3192;
      }
    </style>
  </defs>
  <g id="KEEP_SCROLLING">
    <g id="COLOR">
      <g>
        <path class="cls-1" d="M77.54,154.09C35.34,154.09,1,119.75,1,77.54S35.34,1,77.54,1h388.28c42.21,0,76.54,34.34,76.54,76.54s-34.34,76.54-76.54,76.54H77.54Z"/>
        <path class="cls-2" d="M465.82,2c20.09,0,39.04,7.88,53.35,22.19,14.31,14.31,22.19,33.26,22.19,53.35s-7.88,39.04-22.19,53.35c-14.31,14.31-33.26,22.19-53.35,22.19H77.54c-20.09,0-39.04-7.88-53.35-22.19C9.88,116.58,2,97.64,2,77.54s7.88-39.04,22.19-53.35C38.5,9.88,57.45,2,77.54,2h388.28M465.82,0H77.54C34.89,0,0,34.9,0,77.54h0c0,42.65,34.89,77.54,77.54,77.54h388.28c42.65,0,77.54-34.89,77.54-77.54h0c0-42.65-34.89-77.54-77.54-77.54h0Z"/>
      </g>
    </g>
  </g>
</svg>