<?xml version="1.0" encoding="UTF-8"?>
<svg id="Layer_2" xmlns="http://www.w3.org/2000/svg" viewBox="0 0 1182.87 67.15">
  <defs>
    <style>
      .cls-1 {
        fill: #bbd8f2;
      }

      .cls-2 {
        fill: #2e3192;
      }
    </style>
  </defs>
  <g id="HOME">
    <g id="COLOR">
      <g>
        <path class="cls-1" d="M33.58,66.15C15.61,66.15,1,51.54,1,33.58S15.61,1,33.58,1h1115.71c17.96,0,32.58,14.61,32.58,32.58s-14.61,32.58-32.58,32.58H33.58Z"/>
        <path class="cls-2" d="M1149.29,2c17.41,0,31.58,14.17,31.58,31.58s-14.17,31.58-31.58,31.58H33.58c-17.41,0-31.58-14.17-31.58-31.58S16.17,2,33.58,2h1115.71M1149.29,0H33.58C15.03,0,0,15.03,0,33.58h0c0,18.54,15.03,33.58,33.58,33.58h1115.71c18.54,0,33.58-15.03,33.58-33.58h0c0-18.54-15.03-33.58-33.58-33.58h0Z"/>
      </g>
    </g>
  </g>
</svg>