<?xml version="1.0" encoding="UTF-8"?>
<svg id="Layer_2" xmlns="http://www.w3.org/2000/svg" viewBox="0 0 490.98 293.01">
  <defs>
    <style>
      .cls-1 {
        fill: #d95829;
      }

      .cls-2 {
        fill: #2e3192;
      }

      .cls-3, .cls-4, .cls-5 {
        fill: #fff;
      }

      .cls-4 {
        opacity: .5;
      }

      .cls-5 {
        stroke: #d95829;
      }

      .cls-5, .cls-6 {
        stroke-miterlimit: 10;
        stroke-width: 2px;
      }

      .cls-7 {
        letter-spacing: -.03em;
      }

      .cls-8 {
        fill: #fff7ef;
        font-family: ProximaNova-BoldIt, 'Proxima Nova';
        font-size: 27px;
        font-style: italic;
        font-weight: 700;
      }

      .cls-9 {
        letter-spacing: 0em;
      }

      .cls-6 {
        fill: none;
        stroke: #d9ad5b;
        stroke-linecap: round;
      }

      .cls-10 {
        letter-spacing: -.05em;
      }

      .cls-11 {
        letter-spacing: -.04em;
      }
    </style>
  </defs>
  <g id="KEEP_SCROLLING">
    <g id="TEXT">
      <g>
        <ellipse class="cls-4" cx="245.49" cy="146.51" rx="135.37" ry="251.75" transform="translate(39.46 344.7) rotate(-74.72)"/>
        <ellipse class="cls-3" cx="245.49" cy="146.51" rx="115.46" ry="214.72" transform="translate(39.46 344.7) rotate(-74.72)"/>
        <g>
          <path class="cls-5" d="M108.61,91.79h273.75c27.33,0,49.52,22.19,49.52,49.52v10.39c0,27.33-22.19,49.52-49.52,49.52H108.61c-27.33,0-49.52-22.19-49.52-49.52v-10.39c0-27.33,22.19-49.52,49.52-49.52Z" transform="translate(47.63 -59.84) rotate(15.37)"/>
          <rect class="cls-1" x="74.36" y="103.29" width="342.25" height="86.43" rx="42.17" ry="42.17" transform="translate(47.63 -59.84) rotate(15.37)"/>
          <text class="cls-8" transform="translate(85.09 97.34) rotate(15.37)"><tspan x="0" y="0">BE</tspan><tspan class="cls-11" x="33.64" y="0">A</tspan><tspan x="51.14" y="0">UTIFUL </tspan><tspan class="cls-7" x="150.01" y="0">J</tspan><tspan class="cls-10" x="162.32" y="0">A</tspan><tspan class="cls-9" x="179.41" y="0">CK RUSSELL</tspan><tspan x="45.79" y="32.4">TERRIER PUPPIES!!!</tspan></text>
        </g>
        <g>
          <polygon class="cls-2" points="217.46 243.9 257.74 223.93 192.93 206.23 217.46 243.9"/>
          <polygon class="cls-2" points="270.87 48.39 230.59 68.35 295.4 86.06 270.87 48.39"/>
          <polygon class="cls-2" points="464.67 208.01 443.08 173.7 428.63 226.58 464.67 208.01"/>
          <polygon class="cls-2" points="25.48 88.01 47.08 122.33 61.53 69.45 25.48 88.01"/>
        </g>
        <g>
          <path class="cls-6" d="M216.35,56.18c-18.73-24.92-36.16-32.13-48.59-34.12-22.44-3.6-29.29,9.69-62.78,12.19-35.33,2.63-54.53-10.17-62.52-.09-3.18,4.02-5.13,12.37,4.36,32.08"/>
          <path class="cls-6" d="M174.47,209.46c-28.8,11.93-47.48,9.27-59.19,4.68-21.16-8.31-20.3-23.24-47.86-42.42-29.09-20.23-52.13-18.97-53.88-31.71-.7-5.08,1.87-13.26,20.07-25.4"/>
          <path class="cls-6" d="M316.51,83.55c28.8-11.93,47.48-9.27,59.19-4.68,21.16,8.31,20.3,23.24,47.86,42.42,29.09,20.23,52.13,18.97,53.88,31.71.7,5.08-1.87,13.26-20.07,25.4"/>
          <path class="cls-6" d="M274.63,236.83c18.73,24.92,36.16,32.13,48.59,34.12,22.44,3.6,29.29-9.69,62.78-12.19,35.33-2.63,54.53,10.17,62.52.09,3.18-4.02,5.13-12.37-4.36-32.08"/>
        </g>
      </g>
    </g>
  </g>
</svg>