<?xml version="1.0" encoding="UTF-8"?>
<svg id="Layer_2" xmlns="http://www.w3.org/2000/svg" xmlns:xlink="http://www.w3.org/1999/xlink" viewBox="0 0 519.34 434.98">
  <defs>
    <style>
      .cls-1 {
        fill: #bbd8f2;
      }

      .cls-2 {
        fill: #2e3192;
      }
    </style>
  </defs>
  <g id="MEET_THE_PARENTS">
    <g id="LOGO">
      <g>
        <g>
          <rect class="cls-1" x="43.18" y="1" width="432.98" height="432.98" rx="11" ry="11"/>
          <path class="cls-2" d="M465.16,2c5.51,0,10,4.49,10,10v410.98c0,5.51-4.49,10-10,10H54.18c-5.51,0-10-4.49-10-10V12c0-5.51,4.49-10,10-10h410.98M465.16,0H54.18c-6.6,0-12,5.4-12,12v410.98c0,6.6,5.4,12,12,12h410.98c6.6,0,12-5.4,12-12V12c0-6.6-5.4-12-12-12h0Z"/>
        </g>
        <ellipse class="cls-2" cx="264.77" cy="364.8" rx="28.51" ry="210.04" transform="translate(-103.48 624.74) rotate(-89.25)"/>
        <image width="521" height="365" transform="translate(0 35.57)" xlink:href="../sensei.png"/>
      </g>
    </g>
  </g>
</svg>